<?xml version="1.0" standalone="no"?>
<svg xmlns="http://www.w3.org/2000/svg" width="500" height="500"><defs><clipPath id="clip-path-dot-color"><path d="M 19 173v 14h 7a 7 7, 0, 0, 0, 0 -14" transform="rotate(180,26,180)"/><circle cx="26" cy="208" r="7" transform="rotate(0,26,208)"/><path d="M 19 243v 14h 7a 7 7, 0, 0, 0, 0 -14" transform="rotate(-90,26,250)"/><rect x="19" y="257" width="14" height="14" transform="rotate(0,26,264)"/><path d="M 19 271v 14h 7a 7 7, 0, 0, 0, 0 -14" transform="rotate(90,26,278)"/><path d="M 19 313v 14h 7a 7 7, 0, 0, 0, 0 -14" transform="rotate(-90,26,320)"/><path d="M 19 327v 14h 7a 7 7, 0, 0, 0, 0 -14" transform="rotate(90,26,334)"/><path d="M 19 355v 14h 7a 7 7, 0, 0, 0, 0 -14" transform="rotate(180,26,362)"/><circle cx="40" cy="152" r="7" transform="rotate(0,40,152)"/><rect x="33" y="173" width="14" height="14" transform="rotate(0,40,180)"/><path d="M 33 215v 14h 7a 7 7, 0, 0, 0, 0 -14" transform="rotate(-90,40,222)"/><path d="M 33 229v 14h 14v -7a 7 7, 0, 0, 0, -7 -7" transform="rotate(180,40,236)"/><rect x="33" y="355" width="14" height="14" transform="rotate(0,40,362)"/><path d="M 47 173v 14h 7a 7 7, 0, 0, 0, 0 -14" transform="rotate(0,54,180)"/><circle cx="54" cy="208" r="7" transform="rotate(0,54,208)"/><path d="M 47 229v 14h 7a 7 7, 0, 0, 0, 0 -14" transform="rotate(0,54,236)"/><circle cx="54" cy="264" r="7" transform="rotate(0,54,264)"/><circle cx="54" cy="320" r="7" transform="rotate(0,54,320)"/><path d="M 47 355v 14h 7a 7 7, 0, 0, 0, 0 -14" transform="rotate(0,54,362)"/><path d="M 61 131v 14h 7a 7 7, 0, 0, 0, 0 -14" transform="rotate(-90,68,138)"/><rect x="61" y="145" width="14" height="14" transform="rotate(0,68,152)"/><path d="M 61 159v 14h 14v -7a 7 7, 0, 0, 0, -7 -7" transform="rotate(180,68,166)"/><circle cx="68" cy="194" r="7" transform="rotate(0,68,194)"/><path d="M 75 145v 14h 14v -7a 7 7, 0, 0, 0, -7 -7" transform="rotate(0,82,152)"/><rect x="75" y="159" width="14" height="14" transform="rotate(0,82,166)"/><path d="M 75 173v 14h 7a 7 7, 0, 0, 0, 0 -14" transform="rotate(90,82,180)"/><path d="M 75 229v 14h 14v -7a 7 7, 0, 0, 0, -7 -7" transform="rotate(-90,82,236)"/><rect x="75" y="243" width="14" height="14" transform="rotate(0,82,250)"/><path d="M 75 257v 14h 7a 7 7, 0, 0, 0, 0 -14" transform="rotate(90,82,264)"/><path d="M 75 285v 14h 7a 7 7, 0, 0, 0, 0 -14" transform="rotate(180,82,292)"/><path d="M 75 341v 14h 7a 7 7, 0, 0, 0, 0 -14" transform="rotate(180,82,348)"/><path d="M 89 131v 14h 7a 7 7, 0, 0, 0, 0 -14" transform="rotate(180,96,138)"/><rect x="89" y="159" width="14" height="14" transform="rotate(0,96,166)"/><path d="M 89 187v 14h 7a 7 7, 0, 0, 0, 0 -14" transform="rotate(180,96,194)"/><path d="M 89 229v 14h 14v -7a 7 7, 0, 0, 0, -7 -7" transform="rotate(0,96,236)"/><rect x="89" y="243" width="14" height="14" transform="rotate(0,96,250)"/><path d="M 89 285v 14h 7a 7 7, 0, 0, 0, 0 -14" transform="rotate(0,96,292)"/><path d="M 89 313v 14h 7a 7 7, 0, 0, 0, 0 -14" transform="rotate(-90,96,320)"/><rect x="89" y="327" width="14" height="14" transform="rotate(0,96,334)"/><path d="M 89 341v 14h 14v -7a 7 7, 0, 0, 0, -7 -7" transform="rotate(90,96,348)"/><rect x="103" y="131" width="14" height="14" transform="rotate(0,110,138)"/><rect x="103" y="159" width="14" height="14" transform="rotate(0,110,166)"/><rect x="103" y="187" width="14" height="14" transform="rotate(0,110,194)"/><path d="M 103 215v 14h 7a 7 7, 0, 0, 0, 0 -14" transform="rotate(180,110,222)"/><rect x="103" y="243" width="14" height="14" transform="rotate(0,110,250)"/><path d="M 103 271v 14h 7a 7 7, 0, 0, 0, 0 -14" transform="rotate(180,110,278)"/><path d="M 103 299v 14h 7a 7 7, 0, 0, 0, 0 -14" transform="rotate(180,110,306)"/><path d="M 103 327v 14h 7a 7 7, 0, 0, 0, 0 -14" transform="rotate(0,110,334)"/><path d="M 103 355v 14h 7a 7 7, 0, 0, 0, 0 -14" transform="rotate(180,110,362)"/><path d="M 117 131v 14h 7a 7 7, 0, 0, 0, 0 -14" transform="rotate(0,124,138)"/><rect x="117" y="159" width="14" height="14" transform="rotate(0,124,166)"/><rect x="117" y="173" width="14" height="14" transform="rotate(0,124,180)"/><rect x="117" y="187" width="14" height="14" transform="rotate(0,124,194)"/><path d="M 117 215v 14h 7a 7 7, 0, 0, 0, 0 -14" transform="rotate(0,124,222)"/><rect x="117" y="243" width="14" height="14" transform="rotate(0,124,250)"/><path d="M 117 271v 14h 14v -7a 7 7, 0, 0, 0, -7 -7" transform="rotate(0,124,278)"/><rect x="117" y="285" width="14" height="14" transform="rotate(0,124,292)"/><path d="M 117 299v 14h 14v -7a 7 7, 0, 0, 0, -7 -7" transform="rotate(90,124,306)"/><path d="M 117 341v 14h 7a 7 7, 0, 0, 0, 0 -14" transform="rotate(-90,124,348)"/><path d="M 117 355v 14h 14v -7a 7 7, 0, 0, 0, -7 -7" transform="rotate(90,124,362)"/><path d="M 131 33v 14h 14v -7a 7 7, 0, 0, 0, -7 -7" transform="rotate(-90,138,40)"/><path d="M 131 47v 14h 7a 7 7, 0, 0, 0, 0 -14" transform="rotate(90,138,54)"/><circle cx="138" cy="110" r="7" transform="rotate(0,138,110)"/><path d="M 131 145v 14h 7a 7 7, 0, 0, 0, 0 -14" transform="rotate(-90,138,152)"/><path d="M 131 159v 14h 14v -7a 7 7, 0, 0, 0, -7 -7" transform="rotate(90,138,166)"/><path d="M 131 187v 14h 7a 7 7, 0, 0, 0, 0 -14" transform="rotate(0,138,194)"/><path d="M 131 229v 14h 14v -7a 7 7, 0, 0, 0, -7 -7" transform="rotate(-90,138,236)"/><rect x="131" y="243" width="14" height="14" transform="rotate(0,138,250)"/><path d="M 131 383v 14h 14v -7a 7 7, 0, 0, 0, -7 -7" transform="rotate(-90,138,390)"/><path d="M 131 397v 14h 7a 7 7, 0, 0, 0, 0 -14" transform="rotate(90,138,404)"/><path d="M 131 425v 14h 7a 7 7, 0, 0, 0, 0 -14" transform="rotate(180,138,432)"/><path d="M 145 33v 14h 7a 7 7, 0, 0, 0, 0 -14" transform="rotate(0,152,40)"/><path d="M 145 61v 14h 7a 7 7, 0, 0, 0, 0 -14" transform="rotate(180,152,68)"/><path d="M 145 117v 14h 14v -7a 7 7, 0, 0, 0, -7 -7" transform="rotate(-90,152,124)"/><path d="M 145 131v 14h 14v -7a 7 7, 0, 0, 0, -7 -7" transform="rotate(180,152,138)"/><circle cx="152" cy="180" r="7" transform="rotate(0,152,180)"/><path d="M 145 201v 14h 7a 7 7, 0, 0, 0, 0 -14" transform="rotate(180,152,208)"/><path d="M 145 229v 14h 14v -7a 7 7, 0, 0, 0, -7 -7" transform="rotate(0,152,236)"/><rect x="145" y="243" width="14" height="14" transform="rotate(0,152,250)"/><path d="M 145 257v 14h 7a 7 7, 0, 0, 0, 0 -14" transform="rotate(90,152,264)"/><path d="M 145 285v 14h 7a 7 7, 0, 0, 0, 0 -14" transform="rotate(180,152,292)"/><circle cx="152" cy="320" r="7" transform="rotate(0,152,320)"/><path d="M 145 341v 14h 14v -7a 7 7, 0, 0, 0, -7 -7" transform="rotate(-90,152,348)"/><path d="M 145 355v 14h 7a 7 7, 0, 0, 0, 0 -14" transform="rotate(90,152,362)"/><rect x="145" y="383" width="14" height="14" transform="rotate(0,152,390)"/><rect x="145" y="425" width="14" height="14" transform="rotate(0,152,432)"/><path d="M 145 453v 14h 7a 7 7, 0, 0, 0, 0 -14" transform="rotate(-90,152,460)"/><path d="M 145 467v 14h 14v -7a 7 7, 0, 0, 0, -7 -7" transform="rotate(180,152,474)"/><path d="M 159 47v 14h 14v -7a 7 7, 0, 0, 0, -7 -7" transform="rotate(-90,166,54)"/><rect x="159" y="61" width="14" height="14" transform="rotate(0,166,68)"/><rect x="159" y="75" width="14" height="14" transform="rotate(0,166,82)"/><rect x="159" y="89" width="14" height="14" transform="rotate(0,166,96)"/><rect x="159" y="103" width="14" height="14" transform="rotate(0,166,110)"/><rect x="159" y="117" width="14" height="14" transform="rotate(0,166,124)"/><rect x="159" y="131" width="14" height="14" transform="rotate(0,166,138)"/><rect x="159" y="145" width="14" height="14" transform="rotate(0,166,152)"/><path d="M 159 159v 14h 7a 7 7, 0, 0, 0, 0 -14" transform="rotate(90,166,166)"/><path d="M 159 187v 14h 7a 7 7, 0, 0, 0, 0 -14" transform="rotate(-90,166,194)"/><rect x="159" y="201" width="14" height="14" transform="rotate(0,166,208)"/><path d="M 159 215v 14h 7a 7 7, 0, 0, 0, 0 -14" transform="rotate(90,166,222)"/><path d="M 159 285v 14h 14v -7a 7 7, 0, 0, 0, -7 -7" transform="rotate(0,166,292)"/><path d="M 159 299v 14h 7a 7 7, 0, 0, 0, 0 -14" transform="rotate(90,166,306)"/><path d="M 159 341v 14h 7a 7 7, 0, 0, 0, 0 -14" transform="rotate(0,166,348)"/><path d="M 159 369v 14h 14v -7a 7 7, 0, 0, 0, -7 -7" transform="rotate(-90,166,376)"/><path d="M 159 383v 14h 14v -7a 7 7, 0, 0, 0, -7 -7" transform="rotate(90,166,390)"/><rect x="159" y="425" width="14" height="14" transform="rotate(0,166,432)"/><path d="M 159 439v 14h 7a 7 7, 0, 0, 0, 0 -14" transform="rotate(90,166,446)"/><rect x="159" y="467" width="14" height="14" transform="rotate(0,166,474)"/><circle cx="180" cy="26" r="7" transform="rotate(0,180,26)"/><rect x="173" y="47" width="14" height="14" transform="rotate(0,180,54)"/><path d="M 173 75v 14h 14v -7a 7 7, 0, 0, 0, -7 -7" transform="rotate(0,180,82)"/><path d="M 173 89v 14h 14v -7a 7 7, 0, 0, 0, -7 -7" transform="rotate(90,180,96)"/><path d="M 173 201v 14h 7a 7 7, 0, 0, 0, 0 -14" transform="rotate(0,180,208)"/><path d="M 173 229v 14h 7a 7 7, 0, 0, 0, 0 -14" transform="rotate(180,180,236)"/><path d="M 173 257v 14h 7a 7 7, 0, 0, 0, 0 -14" transform="rotate(180,180,264)"/><path d="M 173 313v 14h 7a 7 7, 0, 0, 0, 0 -14" transform="rotate(180,180,320)"/><path d="M 173 355v 14h 14v -7a 7 7, 0, 0, 0, -7 -7" transform="rotate(-90,180,362)"/><path d="M 173 369v 14h 14v -7a 7 7, 0, 0, 0, -7 -7" transform="rotate(90,180,376)"/><path d="M 173 397v 14h 7a 7 7, 0, 0, 0, 0 -14" transform="rotate(-90,180,404)"/><rect x="173" y="411" width="14" height="14" transform="rotate(0,180,418)"/><path d="M 173 425v 14h 14v -7a 7 7, 0, 0, 0, -7 -7" transform="rotate(90,180,432)"/><rect x="173" y="467" width="14" height="14" transform="rotate(0,180,474)"/><path d="M 187 47v 14h 7a 7 7, 0, 0, 0, 0 -14" transform="rotate(0,194,54)"/><circle cx="194" cy="110" r="7" transform="rotate(0,194,110)"/><path d="M 187 131v 14h 7a 7 7, 0, 0, 0, 0 -14" transform="rotate(-90,194,138)"/><rect x="187" y="145" width="14" height="14" transform="rotate(0,194,152)"/><path d="M 187 159v 14h 14v -7a 7 7, 0, 0, 0, -7 -7" transform="rotate(180,194,166)"/><circle cx="194" cy="194" r="7" transform="rotate(0,194,194)"/><path d="M 187 215v 14h 14v -7a 7 7, 0, 0, 0, -7 -7" transform="rotate(-90,194,222)"/><rect x="187" y="229" width="14" height="14" transform="rotate(0,194,236)"/><path d="M 187 257v 14h 7a 7 7, 0, 0, 0, 0 -14" transform="rotate(0,194,264)"/><circle cx="194" cy="292" r="7" transform="rotate(0,194,292)"/><path d="M 187 313v 14h 7a 7 7, 0, 0, 0, 0 -14" transform="rotate(0,194,320)"/><path d="M 187 355v 14h 7a 7 7, 0, 0, 0, 0 -14" transform="rotate(0,194,362)"/><circle cx="194" cy="390" r="7" transform="rotate(0,194,390)"/><path d="M 187 453v 14h 14v -7a 7 7, 0, 0, 0, -7 -7" transform="rotate(-90,194,460)"/><rect x="187" y="467" width="14" height="14" transform="rotate(0,194,474)"/><circle cx="208" cy="68" r="7" transform="rotate(0,208,68)"/><rect x="201" y="145" width="14" height="14" transform="rotate(0,208,152)"/><rect x="201" y="159" width="14" height="14" transform="rotate(0,208,166)"/><path d="M 201 173v 14h 7a 7 7, 0, 0, 0, 0 -14" transform="rotate(90,208,180)"/><path d="M 201 215v 14h 14v -7a 7 7, 0, 0, 0, -7 -7" transform="rotate(0,208,222)"/><rect x="201" y="229" width="14" height="14" transform="rotate(0,208,236)"/><path d="M 201 243v 14h 14v -7a 7 7, 0, 0, 0, -7 -7" transform="rotate(180,208,250)"/><circle cx="208" cy="376" r="7" transform="rotate(0,208,376)"/><circle cx="208" cy="404" r="7" transform="rotate(0,208,404)"/><circle cx="208" cy="432" r="7" transform="rotate(0,208,432)"/><path d="M 201 453v 14h 14v -7a 7 7, 0, 0, 0, -7 -7" transform="rotate(0,208,460)"/><rect x="201" y="467" width="14" height="14" transform="rotate(0,208,474)"/><path d="M 215 33v 14h 14v -7a 7 7, 0, 0, 0, -7 -7" transform="rotate(-90,222,40)"/><path d="M 215 47v 14h 7a 7 7, 0, 0, 0, 0 -14" transform="rotate(90,222,54)"/><path d="M 215 75v 14h 7a 7 7, 0, 0, 0, 0 -14" transform="rotate(-90,222,82)"/><rect x="215" y="89" width="14" height="14" transform="rotate(0,222,96)"/><rect x="215" y="103" width="14" height="14" transform="rotate(0,222,110)"/><rect x="215" y="117" width="14" height="14" transform="rotate(0,222,124)"/><rect x="215" y="131" width="14" height="14" transform="rotate(0,222,138)"/><path d="M 215 145v 14h 14v -7a 7 7, 0, 0, 0, -7 -7" transform="rotate(90,222,152)"/><rect x="215" y="229" width="14" height="14" transform="rotate(0,222,236)"/><rect x="215" y="243" width="14" height="14" transform="rotate(0,222,250)"/><path d="M 215 257v 14h 14v -7a 7 7, 0, 0, 0, -7 -7" transform="rotate(180,222,264)"/><circle cx="222" cy="292" r="7" transform="rotate(0,222,292)"/><path d="M 215 341v 14h 7a 7 7, 0, 0, 0, 0 -14" transform="rotate(-90,222,348)"/><path d="M 215 355v 14h 7a 7 7, 0, 0, 0, 0 -14" transform="rotate(90,222,362)"/><circle cx="222" cy="446" r="7" transform="rotate(0,222,446)"/><path d="M 215 467v 14h 7a 7 7, 0, 0, 0, 0 -14" transform="rotate(0,222,474)"/><path d="M 229 19v 14h 14v -7a 7 7, 0, 0, 0, -7 -7" transform="rotate(-90,236,26)"/><path d="M 229 33v 14h 14v -7a 7 7, 0, 0, 0, -7 -7" transform="rotate(90,236,40)"/><path d="M 229 61v 14h 7a 7 7, 0, 0, 0, 0 -14" transform="rotate(180,236,68)"/><rect x="229" y="89" width="14" height="14" transform="rotate(0,236,96)"/><path d="M 229 117v 14h 14v -7a 7 7, 0, 0, 0, -7 -7" transform="rotate(0,236,124)"/><path d="M 229 131v 14h 14v -7a 7 7, 0, 0, 0, -7 -7" transform="rotate(90,236,138)"/><circle cx="236" cy="166" r="7" transform="rotate(0,236,166)"/><path d="M 229 187v 14h 14v -7a 7 7, 0, 0, 0, -7 -7" transform="rotate(-90,236,194)"/><path d="M 229 201v 14h 14v -7a 7 7, 0, 0, 0, -7 -7" transform="rotate(180,236,208)"/><rect x="229" y="229" width="14" height="14" transform="rotate(0,236,236)"/><path d="M 229 257v 14h 14v -7a 7 7, 0, 0, 0, -7 -7" transform="rotate(0,236,264)"/><path d="M 229 271v 14h 14v -7a 7 7, 0, 0, 0, -7 -7" transform="rotate(180,236,278)"/><circle cx="236" cy="334" r="7" transform="rotate(0,236,334)"/><path d="M 229 369v 14h 7a 7 7, 0, 0, 0, 0 -14" transform="rotate(-90,236,376)"/><path d="M 229 383v 14h 14v -7a 7 7, 0, 0, 0, -7 -7" transform="rotate(180,236,390)"/><path d="M 229 411v 14h 7a 7 7, 0, 0, 0, 0 -14" transform="rotate(-90,236,418)"/><path d="M 229 425v 14h 14v -7a 7 7, 0, 0, 0, -7 -7" transform="rotate(180,236,432)"/><path d="M 243 19v 14h 7a 7 7, 0, 0, 0, 0 -14" transform="rotate(0,250,26)"/><path d="M 243 47v 14h 7a 7 7, 0, 0, 0, 0 -14" transform="rotate(-90,250,54)"/><path d="M 243 61v 14h 14v -7a 7 7, 0, 0, 0, -7 -7" transform="rotate(90,250,68)"/><path d="M 243 89v 14h 14v -7a 7 7, 0, 0, 0, -7 -7" transform="rotate(0,250,96)"/><path d="M 243 103v 14h 7a 7 7, 0, 0, 0, 0 -14" transform="rotate(90,250,110)"/><path d="M 243 173v 14h 14v -7a 7 7, 0, 0, 0, -7 -7" transform="rotate(-90,250,180)"/><rect x="243" y="187" width="14" height="14" transform="rotate(0,250,194)"/><path d="M 243 201v 14h 14v -7a 7 7, 0, 0, 0, -7 -7" transform="rotate(90,250,208)"/><rect x="243" y="229" width="14" height="14" transform="rotate(0,250,236)"/><path d="M 243 243v 14h 14v -7a 7 7, 0, 0, 0, -7 -7" transform="rotate(180,250,250)"/><rect x="243" y="271" width="14" height="14" transform="rotate(0,250,278)"/><path d="M 243 285v 14h 7a 7 7, 0, 0, 0, 0 -14" transform="rotate(90,250,292)"/><path d="M 243 355v 14h 7a 7 7, 0, 0, 0, 0 -14" transform="rotate(180,250,362)"/><rect x="243" y="383" width="14" height="14" transform="rotate(0,250,390)"/><path d="M 243 397v 14h 7a 7 7, 0, 0, 0, 0 -14" transform="rotate(90,250,404)"/><rect x="243" y="425" width="14" height="14" transform="rotate(0,250,432)"/><path d="M 243 453v 14h 7a 7 7, 0, 0, 0, 0 -14" transform="rotate(180,250,460)"/><circle cx="264" cy="82" r="7" transform="rotate(0,264,82)"/><circle cx="264" cy="124" r="7" transform="rotate(0,264,124)"/><circle cx="264" cy="152" r="7" transform="rotate(0,264,152)"/><path d="M 257 173v 14h 14v -7a 7 7, 0, 0, 0, -7 -7" transform="rotate(0,264,180)"/><rect x="257" y="187" width="14" height="14" transform="rotate(0,264,194)"/><rect x="257" y="229" width="14" height="14" transform="rotate(0,264,236)"/><rect x="257" y="243" width="14" height="14" transform="rotate(0,264,250)"/><rect x="257" y="257" width="14" height="14" transform="rotate(0,264,264)"/><path d="M 257 271v 14h 14v -7a 7 7, 0, 0, 0, -7 -7" transform="rotate(90,264,278)"/><path d="M 257 299v 14h 7a 7 7, 0, 0, 0, 0 -14" transform="rotate(180,264,306)"/><path d="M 257 341v 14h 14v -7a 7 7, 0, 0, 0, -7 -7" transform="rotate(-90,264,348)"/><rect x="257" y="355" width="14" height="14" transform="rotate(0,264,362)"/><rect x="257" y="383" width="14" height="14" transform="rotate(0,264,390)"/><rect x="257" y="425" width="14" height="14" transform="rotate(0,264,432)"/><rect x="257" y="453" width="14" height="14" transform="rotate(0,264,460)"/><path d="M 257 467v 14h 14v -7a 7 7, 0, 0, 0, -7 -7" transform="rotate(180,264,474)"/><path d="M 271 19v 14h 7a 7 7, 0, 0, 0, 0 -14" transform="rotate(-90,278,26)"/><path d="M 271 33v 14h 14v -7a 7 7, 0, 0, 0, -7 -7" transform="rotate(180,278,40)"/><path d="M 271 61v 14h 7a 7 7, 0, 0, 0, 0 -14" transform="rotate(180,278,68)"/><path d="M 271 89v 14h 7a 7 7, 0, 0, 0, 0 -14" transform="rotate(-90,278,96)"/><path d="M 271 103v 14h 7a 7 7, 0, 0, 0, 0 -14" transform="rotate(90,278,110)"/><path d="M 271 131v 14h 7a 7 7, 0, 0, 0, 0 -14" transform="rotate(180,278,138)"/><path d="M 271 187v 14h 14v -7a 7 7, 0, 0, 0, -7 -7" transform="rotate(0,278,194)"/><path d="M 271 201v 14h 7a 7 7, 0, 0, 0, 0 -14" transform="rotate(90,278,208)"/><path d="M 271 229v 14h 14v -7a 7 7, 0, 0, 0, -7 -7" transform="rotate(0,278,236)"/><rect x="271" y="243" width="14" height="14" transform="rotate(0,278,250)"/><path d="M 271 285v 14h 14v -7a 7 7, 0, 0, 0, -7 -7" transform="rotate(-90,278,292)"/><rect x="271" y="299" width="14" height="14" transform="rotate(0,278,306)"/><rect x="271" y="313" width="14" height="14" transform="rotate(0,278,320)"/><rect x="271" y="327" width="14" height="14" transform="rotate(0,278,334)"/><rect x="271" y="341" width="14" height="14" transform="rotate(0,278,348)"/><rect x="271" y="355" width="14" height="14" transform="rotate(0,278,362)"/><rect x="271" y="369" width="14" height="14" transform="rotate(0,278,376)"/><rect x="271" y="383" width="14" height="14" transform="rotate(0,278,390)"/><path d="M 271 397v 14h 7a 7 7, 0, 0, 0, 0 -14" transform="rotate(90,278,404)"/><rect x="271" y="425" width="14" height="14" transform="rotate(0,278,432)"/><rect x="271" y="439" width="14" height="14" transform="rotate(0,278,446)"/><rect x="271" y="453" width="14" height="14" transform="rotate(0,278,460)"/><rect x="271" y="467" width="14" height="14" transform="rotate(0,278,474)"/><rect x="285" y="33" width="14" height="14" transform="rotate(0,292,40)"/><rect x="285" y="61" width="14" height="14" transform="rotate(0,292,68)"/><path d="M 285 117v 14h 7a 7 7, 0, 0, 0, 0 -14" transform="rotate(-90,292,124)"/><rect x="285" y="131" width="14" height="14" transform="rotate(0,292,138)"/><path d="M 285 159v 14h 14v -7a 7 7, 0, 0, 0, -7 -7" transform="rotate(-90,292,166)"/><path d="M 285 173v 14h 14v -7a 7 7, 0, 0, 0, -7 -7" transform="rotate(180,292,180)"/><path d="M 285 215v 14h 7a 7 7, 0, 0, 0, 0 -14" transform="rotate(180,292,222)"/><rect x="285" y="243" width="14" height="14" transform="rotate(0,292,250)"/><rect x="285" y="257" width="14" height="14" transform="rotate(0,292,264)"/><rect x="285" y="271" width="14" height="14" transform="rotate(0,292,278)"/><rect x="285" y="285" width="14" height="14" transform="rotate(0,292,292)"/><rect x="285" y="327" width="14" height="14" transform="rotate(0,292,334)"/><rect x="285" y="341" width="14" height="14" transform="rotate(0,292,348)"/><path d="M 285 369v 14h 14v -7a 7 7, 0, 0, 0, -7 -7" transform="rotate(0,292,376)"/><rect x="285" y="383" width="14" height="14" transform="rotate(0,292,390)"/><path d="M 285 411v 14h 14v -7a 7 7, 0, 0, 0, -7 -7" transform="rotate(-90,292,418)"/><path d="M 285 425v 14h 14v -7a 7 7, 0, 0, 0, -7 -7" transform="rotate(90,292,432)"/><path d="M 285 467v 14h 7a 7 7, 0, 0, 0, 0 -14" transform="rotate(0,292,474)"/><path d="M 299 19v 14h 7a 7 7, 0, 0, 0, 0 -14" transform="rotate(-90,306,26)"/><rect x="299" y="33" width="14" height="14" transform="rotate(0,306,40)"/><rect x="299" y="47" width="14" height="14" transform="rotate(0,306,54)"/><rect x="299" y="61" width="14" height="14" transform="rotate(0,306,68)"/><rect x="299" y="75" width="14" height="14" transform="rotate(0,306,82)"/><rect x="299" y="89" width="14" height="14" transform="rotate(0,306,96)"/><path d="M 299 103v 14h 7a 7 7, 0, 0, 0, 0 -14" transform="rotate(90,306,110)"/><rect x="299" y="131" width="14" height="14" transform="rotate(0,306,138)"/><rect x="299" y="145" width="14" height="14" transform="rotate(0,306,152)"/><rect x="299" y="159" width="14" height="14" transform="rotate(0,306,166)"/><rect x="299" y="173" width="14" height="14" transform="rotate(0,306,180)"/><path d="M 299 187v 14h 14v -7a 7 7, 0, 0, 0, -7 -7" transform="rotate(180,306,194)"/><path d="M 299 215v 14h 14v -7a 7 7, 0, 0, 0, -7 -7" transform="rotate(0,306,222)"/><rect x="299" y="229" width="14" height="14" transform="rotate(0,306,236)"/><path d="M 299 243v 14h 14v -7a 7 7, 0, 0, 0, -7 -7" transform="rotate(90,306,250)"/><path d="M 299 271v 14h 14v -7a 7 7, 0, 0, 0, -7 -7" transform="rotate(0,306,278)"/><rect x="299" y="285" width="14" height="14" transform="rotate(0,306,292)"/><rect x="299" y="299" width="14" height="14" transform="rotate(0,306,306)"/><rect x="299" y="313" width="14" height="14" transform="rotate(0,306,320)"/><rect x="299" y="327" width="14" height="14" transform="rotate(0,306,334)"/><rect x="299" y="341" width="14" height="14" transform="rotate(0,306,348)"/><rect x="299" y="383" width="14" height="14" transform="rotate(0,306,390)"/><rect x="299" y="397" width="14" height="14" transform="rotate(0,306,404)"/><path d="M 299 411v 14h 14v -7a 7 7, 0, 0, 0, -7 -7" transform="rotate(90,306,418)"/><circle cx="306" cy="460" r="7" transform="rotate(0,306,460)"/><rect x="313" y="33" width="14" height="14" transform="rotate(0,320,40)"/><path d="M 313 61v 14h 7a 7 7, 0, 0, 0, 0 -14" transform="rotate(0,320,68)"/><path d="M 313 89v 14h 7a 7 7, 0, 0, 0, 0 -14" transform="rotate(0,320,96)"/><path d="M 313 117v 14h 7a 7 7, 0, 0, 0, 0 -14" transform="rotate(-90,320,124)"/><rect x="313" y="131" width="14" height="14" transform="rotate(0,320,138)"/><path d="M 313 159v 14h 7a 7 7, 0, 0, 0, 0 -14" transform="rotate(0,320,166)"/><path d="M 313 187v 14h 14v -7a 7 7, 0, 0, 0, -7 -7" transform="rotate(0,320,194)"/><path d="M 313 201v 14h 7a 7 7, 0, 0, 0, 0 -14" transform="rotate(90,320,208)"/><path d="M 313 229v 14h 7a 7 7, 0, 0, 0, 0 -14" transform="rotate(0,320,236)"/><circle cx="320" cy="264" r="7" transform="rotate(0,320,264)"/><rect x="313" y="299" width="14" height="14" transform="rotate(0,320,306)"/><rect x="313" y="313" width="14" height="14" transform="rotate(0,320,320)"/><rect x="313" y="327" width="14" height="14" transform="rotate(0,320,334)"/><rect x="313" y="341" width="14" height="14" transform="rotate(0,320,348)"/><rect x="313" y="383" width="14" height="14" transform="rotate(0,320,390)"/><path d="M 313 397v 14h 14v -7a 7 7, 0, 0, 0, -7 -7" transform="rotate(90,320,404)"/><path d="M 313 467v 14h 7a 7 7, 0, 0, 0, 0 -14" transform="rotate(180,320,474)"/><path d="M 327 19v 14h 7a 7 7, 0, 0, 0, 0 -14" transform="rotate(-90,334,26)"/><rect x="327" y="33" width="14" height="14" transform="rotate(0,334,40)"/><path d="M 327 47v 14h 7a 7 7, 0, 0, 0, 0 -14" transform="rotate(90,334,54)"/><circle cx="334" cy="110" r="7" transform="rotate(0,334,110)"/><rect x="327" y="131" width="14" height="14" transform="rotate(0,334,138)"/><path d="M 327 145v 14h 7a 7 7, 0, 0, 0, 0 -14" transform="rotate(90,334,152)"/><circle cx="334" cy="180" r="7" transform="rotate(0,334,180)"/><rect x="327" y="299" width="14" height="14" transform="rotate(0,334,306)"/><path d="M 327 313v 14h 14v -7a 7 7, 0, 0, 0, -7 -7" transform="rotate(90,334,320)"/><rect x="327" y="341" width="14" height="14" transform="rotate(0,334,348)"/><rect x="327" y="383" width="14" height="14" transform="rotate(0,334,390)"/><circle cx="334" cy="418" r="7" transform="rotate(0,334,418)"/><rect x="327" y="467" width="14" height="14" transform="rotate(0,334,474)"/><path d="M 341 75v 14h 14v -7a 7 7, 0, 0, 0, -7 -7" transform="rotate(-90,348,82)"/><path d="M 341 89v 14h 7a 7 7, 0, 0, 0, 0 -14" transform="rotate(90,348,96)"/><path d="M 341 131v 14h 7a 7 7, 0, 0, 0, 0 -14" transform="rotate(0,348,138)"/><circle cx="348" cy="208" r="7" transform="rotate(0,348,208)"/><path d="M 341 229v 14h 7a 7 7, 0, 0, 0, 0 -14" transform="rotate(-90,348,236)"/><rect x="341" y="243" width="14" height="14" transform="rotate(0,348,250)"/><rect x="341" y="257" width="14" height="14" transform="rotate(0,348,264)"/><rect x="341" y="271" width="14" height="14" transform="rotate(0,348,278)"/><rect x="341" y="285" width="14" height="14" transform="rotate(0,348,292)"/><path d="M 341 299v 14h 14v -7a 7 7, 0, 0, 0, -7 -7" transform="rotate(90,348,306)"/><rect x="341" y="341" width="14" height="14" transform="rotate(0,348,348)"/><path d="M 341 355v 14h 14v -7a 7 7, 0, 0, 0, -7 -7" transform="rotate(180,348,362)"/><rect x="341" y="383" width="14" height="14" transform="rotate(0,348,390)"/><path d="M 341 453v 14h 14v -7a 7 7, 0, 0, 0, -7 -7" transform="rotate(-90,348,460)"/><rect x="341" y="467" width="14" height="14" transform="rotate(0,348,474)"/><path d="M 355 19v 14h 7a 7 7, 0, 0, 0, 0 -14" transform="rotate(-90,362,26)"/><rect x="355" y="33" width="14" height="14" transform="rotate(0,362,40)"/><rect x="355" y="47" width="14" height="14" transform="rotate(0,362,54)"/><rect x="355" y="61" width="14" height="14" transform="rotate(0,362,68)"/><path d="M 355 75v 14h 14v -7a 7 7, 0, 0, 0, -7 -7" transform="rotate(90,362,82)"/><path d="M 355 103v 14h 7a 7 7, 0, 0, 0, 0 -14" transform="rotate(-90,362,110)"/><path d="M 355 117v 14h 7a 7 7, 0, 0, 0, 0 -14" transform="rotate(90,362,124)"/><path d="M 355 159v 14h 7a 7 7, 0, 0, 0, 0 -14" transform="rotate(180,362,166)"/><path d="M 355 215v 14h 7a 7 7, 0, 0, 0, 0 -14" transform="rotate(180,362,222)"/><rect x="355" y="243" width="14" height="14" transform="rotate(0,362,250)"/><rect x="355" y="257" width="14" height="14" transform="rotate(0,362,264)"/><rect x="355" y="341" width="14" height="14" transform="rotate(0,362,348)"/><rect x="355" y="355" width="14" height="14" transform="rotate(0,362,362)"/><rect x="355" y="369" width="14" height="14" transform="rotate(0,362,376)"/><rect x="355" y="383" width="14" height="14" transform="rotate(0,362,390)"/><rect x="355" y="397" width="14" height="14" transform="rotate(0,362,404)"/><path d="M 355 411v 14h 14v -7a 7 7, 0, 0, 0, -7 -7" transform="rotate(180,362,418)"/><rect x="355" y="453" width="14" height="14" transform="rotate(0,362,460)"/><rect x="355" y="467" width="14" height="14" transform="rotate(0,362,474)"/><path d="M 369 131v 14h 7a 7 7, 0, 0, 0, 0 -14" transform="rotate(-90,376,138)"/><rect x="369" y="145" width="14" height="14" transform="rotate(0,376,152)"/><rect x="369" y="159" width="14" height="14" transform="rotate(0,376,166)"/><path d="M 369 173v 14h 7a 7 7, 0, 0, 0, 0 -14" transform="rotate(90,376,180)"/><path d="M 369 201v 14h 14v -7a 7 7, 0, 0, 0, -7 -7" transform="rotate(-90,376,208)"/><path d="M 369 215v 14h 14v -7a 7 7, 0, 0, 0, -7 -7" transform="rotate(90,376,222)"/><rect x="369" y="243" width="14" height="14" transform="rotate(0,376,250)"/><path d="M 369 257v 14h 14v -7a 7 7, 0, 0, 0, -7 -7" transform="rotate(90,376,264)"/><path d="M 369 285v 14h 7a 7 7, 0, 0, 0, 0 -14" transform="rotate(180,376,292)"/><circle cx="376" cy="320" r="7" transform="rotate(0,376,320)"/><path d="M 369 341v 14h 14v -7a 7 7, 0, 0, 0, -7 -7" transform="rotate(0,376,348)"/><rect x="369" y="355" width="14" height="14" transform="rotate(0,376,362)"/><rect x="369" y="411" width="14" height="14" transform="rotate(0,376,418)"/><path d="M 369 453v 14h 14v -7a 7 7, 0, 0, 0, -7 -7" transform="rotate(0,376,460)"/><rect x="369" y="467" width="14" height="14" transform="rotate(0,376,474)"/><rect x="383" y="201" width="14" height="14" transform="rotate(0,390,208)"/><path d="M 383 243v 14h 7a 7 7, 0, 0, 0, 0 -14" transform="rotate(0,390,250)"/><path d="M 383 271v 14h 7a 7 7, 0, 0, 0, 0 -14" transform="rotate(-90,390,278)"/><rect x="383" y="285" width="14" height="14" transform="rotate(0,390,292)"/><rect x="383" y="355" width="14" height="14" transform="rotate(0,390,362)"/><circle cx="390" cy="390" r="7" transform="rotate(0,390,390)"/><rect x="383" y="411" width="14" height="14" transform="rotate(0,390,418)"/><rect x="383" y="425" width="14" height="14" transform="rotate(0,390,432)"/><path d="M 383 439v 14h 7a 7 7, 0, 0, 0, 0 -14" transform="rotate(90,390,446)"/><rect x="383" y="467" width="14" height="14" transform="rotate(0,390,474)"/><circle cx="404" cy="180" r="7" transform="rotate(0,404,180)"/><rect x="397" y="201" width="14" height="14" transform="rotate(0,404,208)"/><rect x="397" y="215" width="14" height="14" transform="rotate(0,404,222)"/><path d="M 397 229v 14h 7a 7 7, 0, 0, 0, 0 -14" transform="rotate(90,404,236)"/><path d="M 397 285v 14h 14v -7a 7 7, 0, 0, 0, -7 -7" transform="rotate(0,404,292)"/><rect x="397" y="299" width="14" height="14" transform="rotate(0,404,306)"/><path d="M 397 313v 14h 14v -7a 7 7, 0, 0, 0, -7 -7" transform="rotate(180,404,320)"/><path d="M 397 341v 14h 14v -7a 7 7, 0, 0, 0, -7 -7" transform="rotate(-90,404,348)"/><rect x="397" y="355" width="14" height="14" transform="rotate(0,404,362)"/><rect x="397" y="411" width="14" height="14" transform="rotate(0,404,418)"/><path d="M 397 425v 14h 14v -7a 7 7, 0, 0, 0, -7 -7" transform="rotate(90,404,432)"/><path d="M 397 467v 14h 7a 7 7, 0, 0, 0, 0 -14" transform="rotate(0,404,474)"/><rect x="411" y="201" width="14" height="14" transform="rotate(0,418,208)"/><rect x="411" y="215" width="14" height="14" transform="rotate(0,418,222)"/><path d="M 411 313v 14h 7a 7 7, 0, 0, 0, 0 -14" transform="rotate(0,418,320)"/><rect x="411" y="341" width="14" height="14" transform="rotate(0,418,348)"/><rect x="411" y="355" width="14" height="14" transform="rotate(0,418,362)"/><rect x="411" y="369" width="14" height="14" transform="rotate(0,418,376)"/><rect x="411" y="383" width="14" height="14" transform="rotate(0,418,390)"/><rect x="411" y="397" width="14" height="14" transform="rotate(0,418,404)"/><rect x="411" y="411" width="14" height="14" transform="rotate(0,418,418)"/><circle cx="418" cy="460" r="7" transform="rotate(0,418,460)"/><path d="M 425 145v 14h 7a 7 7, 0, 0, 0, 0 -14" transform="rotate(180,432,152)"/><path d="M 425 201v 14h 14v -7a 7 7, 0, 0, 0, -7 -7" transform="rotate(0,432,208)"/><rect x="425" y="215" width="14" height="14" transform="rotate(0,432,222)"/><circle cx="432" cy="250" r="7" transform="rotate(0,432,250)"/><path d="M 425 341v 14h 14v -7a 7 7, 0, 0, 0, -7 -7" transform="rotate(0,432,348)"/><rect x="425" y="355" width="14" height="14" transform="rotate(0,432,362)"/><rect x="425" y="369" width="14" height="14" transform="rotate(0,432,376)"/><rect x="425" y="397" width="14" height="14" transform="rotate(0,432,404)"/><rect x="425" y="411" width="14" height="14" transform="rotate(0,432,418)"/><path d="M 425 467v 14h 7a 7 7, 0, 0, 0, 0 -14" transform="rotate(180,432,474)"/><path d="M 439 131v 14h 14v -7a 7 7, 0, 0, 0, -7 -7" transform="rotate(-90,446,138)"/><rect x="439" y="145" width="14" height="14" transform="rotate(0,446,152)"/><path d="M 439 159v 14h 14v -7a 7 7, 0, 0, 0, -7 -7" transform="rotate(180,446,166)"/><circle cx="446" cy="194" r="7" transform="rotate(0,446,194)"/><path d="M 439 215v 14h 7a 7 7, 0, 0, 0, 0 -14" transform="rotate(0,446,222)"/><circle cx="446" cy="264" r="7" transform="rotate(0,446,264)"/><circle cx="446" cy="292" r="7" transform="rotate(0,446,292)"/><circle cx="446" cy="320" r="7" transform="rotate(0,446,320)"/><rect x="439" y="369" width="14" height="14" transform="rotate(0,446,376)"/><rect x="439" y="397" width="14" height="14" transform="rotate(0,446,404)"/><rect x="439" y="411" width="14" height="14" transform="rotate(0,446,418)"/><path d="M 439 425v 14h 7a 7 7, 0, 0, 0, 0 -14" transform="rotate(90,446,432)"/><path d="M 439 453v 14h 7a 7 7, 0, 0, 0, 0 -14" transform="rotate(-90,446,460)"/><path d="M 439 467v 14h 14v -7a 7 7, 0, 0, 0, -7 -7" transform="rotate(90,446,474)"/><path d="M 453 131v 14h 7a 7 7, 0, 0, 0, 0 -14" transform="rotate(0,460,138)"/><rect x="453" y="159" width="14" height="14" transform="rotate(0,460,166)"/><path d="M 453 201v 14h 7a 7 7, 0, 0, 0, 0 -14" transform="rotate(180,460,208)"/><path d="M 453 229v 14h 14v -7a 7 7, 0, 0, 0, -7 -7" transform="rotate(-90,460,236)"/><path d="M 453 243v 14h 14v -7a 7 7, 0, 0, 0, -7 -7" transform="rotate(180,460,250)"/><path d="M 453 327v 14h 14v -7a 7 7, 0, 0, 0, -7 -7" transform="rotate(-90,460,334)"/><rect x="453" y="341" width="14" height="14" transform="rotate(0,460,348)"/><rect x="453" y="355" width="14" height="14" transform="rotate(0,460,362)"/><rect x="453" y="369" width="14" height="14" transform="rotate(0,460,376)"/><rect x="453" y="397" width="14" height="14" transform="rotate(0,460,404)"/><rect x="453" y="411" width="14" height="14" transform="rotate(0,460,418)"/><path d="M 467 145v 14h 7a 7 7, 0, 0, 0, 0 -14" transform="rotate(-90,474,152)"/><rect x="467" y="159" width="14" height="14" transform="rotate(0,474,166)"/><path d="M 467 173v 14h 7a 7 7, 0, 0, 0, 0 -14" transform="rotate(90,474,180)"/><path d="M 467 201v 14h 14v -7a 7 7, 0, 0, 0, -7 -7" transform="rotate(0,474,208)"/><rect x="467" y="215" width="14" height="14" transform="rotate(0,474,222)"/><rect x="467" y="229" width="14" height="14" transform="rotate(0,474,236)"/><path d="M 467 243v 14h 14v -7a 7 7, 0, 0, 0, -7 -7" transform="rotate(90,474,250)"/><path d="M 467 285v 14h 7a 7 7, 0, 0, 0, 0 -14" transform="rotate(-90,474,292)"/><path d="M 467 299v 14h 7a 7 7, 0, 0, 0, 0 -14" transform="rotate(90,474,306)"/><path d="M 467 327v 14h 7a 7 7, 0, 0, 0, 0 -14" transform="rotate(0,474,334)"/><path d="M 467 355v 14h 14v -7a 7 7, 0, 0, 0, -7 -7" transform="rotate(0,474,362)"/><rect x="467" y="369" width="14" height="14" transform="rotate(0,474,376)"/><rect x="467" y="383" width="14" height="14" transform="rotate(0,474,390)"/><rect x="467" y="397" width="14" height="14" transform="rotate(0,474,404)"/><path d="M 467 411v 14h 14v -7a 7 7, 0, 0, 0, -7 -7" transform="rotate(90,474,418)"/><circle cx="474" cy="474" r="7" transform="rotate(0,474,474)"/><path clip-rule="evenodd" d="M 68 19a 49 49 0 1 0 0.1 0zm 0 14a 35 35 0 1 1 -0.1 0Z" transform="rotate(0,68,68)"/><circle cx="68" cy="68" r="21" transform="rotate(0,68,68)"/><path clip-rule="evenodd" d="M 432 19a 49 49 0 1 0 0.1 0zm 0 14a 35 35 0 1 1 -0.1 0Z" transform="rotate(90,432,68)"/><circle cx="432" cy="68" r="21" transform="rotate(90,432,68)"/><path clip-rule="evenodd" d="M 68 383a 49 49 0 1 0 0.1 0zm 0 14a 35 35 0 1 1 -0.1 0Z" transform="rotate(-90,68,432)"/><circle cx="68" cy="432" r="21" transform="rotate(-90,68,432)"/></clipPath></defs><rect x="0" y="0" height="500" width="500" clip-path="url('#clip-path-background-color')" fill="#fff"/><rect x="0" y="0" height="500" width="500" clip-path="url('#clip-path-dot-color')" fill="#000000"/></svg>