<?xml version="1.0" encoding="UTF-8"?>
<svg id="Layer_12" data-name="Layer 12" xmlns="http://www.w3.org/2000/svg" viewBox="0 0 1056.36 127.27">
  <defs>
    <style>
      .cls-1 {
        fill: #fff;
      }

      .cls-2 {
        fill: #d9d9d9;
      }

      .cls-3 {
        fill: #2cff10;
      }

      .cls-4 {
        fill: #38ff00;
      }

      .cls-5 {
        fill: #343434;
      }
    </style>
  </defs>
  <g>
    <path class="cls-5" d="M234.88,38.97c-3.48-.24-6.78-1.04-9.71-3.59-2-1.75-3.51-4-5.53-5.73-3.18-2.73-7.4-3.97-11.57-4.44-7.47-.83-18.01-1.67-23.07,5.21-1.29,1.76-1.96,3.76-2,6.02-.08,1.86,.29,3.49,1.12,4.9,.83,1.41,2.04,2.65,3.64,3.72,1.59,1.07,3.52,2.01,5.78,2.82,2.26,.81,4.8,1.51,7.63,2.12l13.86,2.42c6.14,1.33,11.56,3.11,16.26,5.33,4.7,2.22,8.66,4.86,11.87,7.93,3.21,3.07,5.64,6.6,7.3,10.6,1.65,4,2.5,8.48,2.54,13.44-.04,7.83-2.02,14.55-5.93,20.16-3.92,5.61-9.54,9.91-16.86,12.9-7.33,2.99-16.16,4.48-26.49,4.48s-19.41-1.55-27.12-4.66c-7.71-3.11-13.71-7.83-17.98-14.17-4.28-6.34-6.48-14.35-6.6-24.04h17.95c5.4,0,10.3,3.09,12.72,7.92,.36,.73,.78,1.42,1.24,2.07,1.9,2.66,4.51,4.68,7.84,6.06,3.33,1.37,7.2,2.06,11.59,2.06,4.04,0,7.48-.54,10.32-1.63,2.85-1.09,5.04-2.6,6.57-4.54,1.53-1.94,2.32-4.16,2.36-6.66-.04-2.34-.77-4.35-2.18-6.02-1.41-1.67-3.58-3.13-6.51-4.36-2.93-1.23-6.65-2.37-11.17-3.42l-12.96-3.03c-10.74-2.46-19.19-6.45-25.37-11.96-6.17-5.51-12.45-12.97-12.41-22.37-.04-7.67,2.02-14.39,6.17-20.16,4.16-5.77,9.91-10.27,17.26-13.5,7.35-3.23,15.72-4.84,25.13-4.84s22.86,1.82,29.94,5.07c7.08,3.25,12.58,7.8,16.5,13.65,3.92,5.85,5.91,12.63,5.99,20.34h-11.99c-2.08,0-4.13,.04-6.13-.09Z"/>
    <path class="cls-5" d="M302.29,127.27V14.58C302.29,6.53,308.65,0,316.5,0h15.76V51.08h48.86V0h29.91V112.69c0,8.05-6.36,14.58-14.21,14.58h-15.7v-51.15h-48.86v51.15h-29.97Z"/>
    <path class="cls-5" d="M493.88,0V112.69c0,8.05-6.36,14.58-14.21,14.58h-15.76V14.58C463.91,6.53,470.27,0,478.11,0h15.76Z"/>
    <path class="cls-5" d="M546.75,127.27V14.58C546.75,6.53,553.11,0,560.96,0h70.44V10.4c0,8.05-6.36,14.58-14.21,14.58h-40.47v26.1h49.29v10.46c0,8.05-6.36,14.58-14.21,14.58h-35.08v51.15h-29.97Z"/>
    <path class="cls-5" d="M676.45,24.98V14.58c0-8.05,6.36-14.58,14.21-14.58h90.6V10.4c0,8.05-6.36,14.58-14.21,14.58h-23.39V127.27h-29.55V24.98h-37.66Z"/>
    <path class="cls-5" d="M830.08,127.27V0h15.76C853.69,0,860.05,6.53,860.05,14.58V102.29h51.59v24.98h-81.56Z"/>
    <path class="cls-5" d="M935.87,0h24.74C965.97,0,970.88,3.1,973.29,8.01l22.28,45.25h1.09l22.28-45.25C1021.35,3.1,1026.26,0,1031.62,0h24.74l-45.35,84.77v42.51h-29.79v-42.51L935.87,0Z"/>
  </g>
  <g>
    <g>
      <path class="cls-4" d="M63.26,15.78c-.93,.34-1.88,.62-2.83,.89-3.23,.94-3.71,3.29-6.06,5.82-12.1,4.73-11.82,.8-15.75-6.72-3.93-7.51-7.35-6.33-7.35-6.33l-.28-.27c.4-.45,.81-.89,1.23-1.32,4.73-4.95,11.96-8.92,18.69-4.92,1.44,.86,2.64,2.06,4.01,3.04,3.91,2.8,9.08,4.4,13.55,6.12,.17,.07-3.24,2.81-3.64,3.01-.51,.26-1.03,.48-1.56,.68Zm-15.09-6.1c0-1.6-1.3-2.91-2.91-2.91s-2.91,1.3-2.91,2.91,1.3,2.91,2.91,2.91,2.91-1.3,2.91-2.91Z"/>
      <path class="cls-2" d="M60.33,26.44l-.35,.24c-8.92,3.49-15.76,6.92-21.22,2.08-1.95-1.72-3.72-4.49-5.35-8.68-3.03-7.77-5.64-6.6-5.72-6.56l-.18-.14c1.11-1.45,2.27-2.85,3.49-4.2l.28,.27s3.42-1.19,7.35,6.33c3.93,7.51,3.64,11.45,15.75,6.72h0c2.43,1.12,4.36,2.4,5.96,3.95Z"/>
      <path class="cls-1" d="M45.26,6.77c1.6,0,2.91,1.3,2.91,2.91s-1.3,2.91-2.91,2.91-2.91-1.3-2.91-2.91,1.3-2.91,2.91-2.91Zm1.77,2.91c0-.98-.79-1.77-1.77-1.77s-1.77,.79-1.77,1.77,.79,1.77,1.77,1.77,1.77-.79,1.77-1.77Z"/>
      <path class="cls-5" d="M45.26,7.9c.98,0,1.77,.79,1.77,1.77s-.79,1.77-1.77,1.77-1.77-.79-1.77-1.77,.79-1.77,1.77-1.77Z"/>
      <path class="cls-3" d="M27.17,77.35l-.25,.04c-2.26,3.11-4.6,5.54-6.51,8.89-2.31,4.06-3.5,8.65-3.56,13.31-.07,4.83,.34,9.43-.74,14.19-1.01,4.42-2.9,8.52-5.61,12.18H1.31l5.92-8.29c-1.56-15.23-1.9-30.68-.8-45.95,.28-3.9,.87-7.77,1.69-11.59,3.46-16.13,9.13-33.37,19.37-46.74l.18,.14c.08-.04,2.69-1.21,5.72,6.56,1.63,4.19,3.41,6.96,5.35,8.68h0c-.61,1.52-1.39,5.32-2.05,7.92-1.34,5.26-2.06,12.44-2.89,20.44l-.12,.04c1.65,4.47,2.72,9.1,2.93,13.87,.19,4.4-.15,9.51-2.44,13.37-1.18,1.98-3.63,5.02-5.9,5.72-.33-4.33-.49-8.6-1.11-12.78Z"/>
      <path class="cls-1" d="M27.17,77.35c.63,4.17,.79,8.45,1.11,12.78,2.27-.7,4.72-3.73,5.9-5.72,2.29-3.86,2.63-8.97,2.44-13.37-.21-4.77-1.28-9.41-2.93-13.87l.12-.04c.83-8,1.55-15.18,2.89-20.44,.66-2.61,1.44-6.4,2.05-7.92h0c5.46,4.84,12.3,1.41,21.22-2.08l.35-.24c2.34,2.26,3.95,5.08,5.32,8.78,1.93,5.2,2.02,10.56,1.85,16.01,0,.11,0,.22-.01,.33-.36,10.81-2.6,21.47-5.93,31.74-1.66,5.13-3.59,10.18-5.68,15.16-1.89,4.52-4.95,9.28-5.92,14.09-.12,.61-.19,1.29,.15,1.8,.51,.76,1.6,.76,2.52,.76,6.73-.01,12.79,4.53,14.95,10.86-8.21,0-16.43,0-24.64,0H10.5c2.71-3.67,4.6-7.76,5.61-12.18,1.08-4.76,.67-9.35,.74-14.19,.06-4.66,1.25-9.26,3.56-13.31,1.91-3.35,4.25-5.78,6.51-8.89l.25-.04Z"/>
    </g>
    <g>
      <path class="cls-5" d="M33.82,58.43s-.09,0-.14,0c-.72-.07-1.24-.72-1.17-1.44l.06-.54c.82-7.97,1.53-14.85,2.86-20.08,.2-.79,.41-1.67,.63-2.61,.52-2.23,1.02-4.33,1.47-5.48,.27-.67,1.03-1,1.7-.73,.67,.27,1,1.03,.73,1.7-.38,.96-.9,3.16-1.36,5.1-.21,.91-.43,1.85-.64,2.66-1.28,5.05-1.99,11.84-2.8,19.71l-.06,.54c-.07,.67-.64,1.18-1.3,1.18Z"/>
      <path class="cls-5" d="M10.5,127.27c-.27,0-.54-.08-.78-.26-.58-.43-.7-1.25-.27-1.83,2.61-3.52,4.42-7.46,5.39-11.7,.79-3.45,.75-6.83,.72-10.4-.01-1.14-.02-2.32,0-3.51,.07-4.96,1.36-9.78,3.73-13.94,1.29-2.27,2.8-4.15,4.25-5.98,.77-.97,1.57-1.97,2.34-3.03,.42-.59,1.24-.72,1.83-.29,.59,.43,.72,1.24,.29,1.83-.8,1.11-1.62,2.13-2.41,3.12-1.46,1.83-2.83,3.56-4.02,5.65-2.16,3.78-3.33,8.16-3.39,12.68-.02,1.16,0,2.32,0,3.45,.04,3.57,.07,7.26-.78,11.01-1.05,4.59-3.01,8.86-5.83,12.67-.26,.35-.65,.53-1.05,.53Z"/>
      <path class="cls-5" d="M60.37,127.27c-5.81,0-11.61,0-17.42,0H1.31c-.49,0-.94-.27-1.16-.71-.22-.44-.19-.96,.1-1.36l5.64-7.89c-1.57-15.52-1.82-30.89-.75-45.69,.27-3.75,.85-7.71,1.72-11.77C11.18,39.62,17.6,24.16,26.46,12.59c1.14-1.49,2.34-2.93,3.56-4.28,.4-.44,.82-.9,1.25-1.35,1.96-2.05,5.13-4.78,9.12-6.15,3.94-1.35,7.81-1,11.19,1.01,.95,.57,1.79,1.25,2.59,1.91,.51,.42,1,.82,1.51,1.19,3.04,2.17,6.92,3.61,10.68,4.99,.85,.31,1.74,.64,2.58,.96,.48,.19,.82,.65,.84,1.17,.04,.77-.34,1.1-2.16,2.58-.66,.53-1.82,1.46-2.2,1.65-.52,.26-1.08,.51-1.7,.74-.95,.35-1.92,.63-2.85,.9l-.07,.02c-1.77,.51-2.47,1.5-3.54,3.01-.25,.36-.52,.73-.82,1.13,1.87,1,3.46,2.14,4.8,3.44,2.38,2.3,4.12,5.15,5.64,9.27,2.07,5.59,2.09,11.45,1.94,16.5v.33c-.35,10.2-2.31,20.69-6,32.1-1.56,4.81-3.43,9.8-5.71,15.26-.64,1.54-1.43,3.12-2.19,4.65-1.5,3.02-3.05,6.15-3.66,9.19-.13,.67-.05,.81-.04,.81,.12,.18,1.1,.18,1.43,.18,7.18-.01,13.83,4.82,16.2,11.75,.14,.4,.07,.84-.17,1.18-.25,.34-.64,.55-1.07,.55-2.41,0-4.81,0-7.22,0Zm-56.52-2.62H42.95c7.56,0,15.12,0,22.68,0-2.43-4.93-7.52-8.24-12.96-8.24-.05,0-.1,0-.16,0-1.08,0-2.62-.05-3.48-1.34-.7-1.04-.44-2.31-.35-2.79,.69-3.38,2.31-6.66,3.88-9.84,.77-1.56,1.5-3.04,2.12-4.5,2.26-5.39,4.1-10.32,5.64-15.06,3.62-11.17,5.54-21.43,5.87-31.38v-.33c.16-5.03,.15-10.36-1.76-15.51-1.38-3.73-2.93-6.28-5.01-8.29,0,0,0,0,0,0-1.48-1.43-3.31-2.64-5.59-3.7-.37-.17-.65-.51-.73-.91-.09-.42,.02-.86,.31-1.18,.69-.74,1.21-1.48,1.71-2.19,1.18-1.66,2.3-3.24,4.94-4l.07-.02c.89-.26,1.81-.52,2.67-.84,.52-.19,.97-.39,1.4-.6,.25-.16,1.04-.78,1.79-1.38-.18-.07-.36-.13-.54-.2-3.92-1.45-7.98-2.94-11.3-5.32-.58-.41-1.12-.86-1.65-1.29-.76-.63-1.48-1.22-2.27-1.68-7.45-4.42-14.95,2.48-17.07,4.7-.41,.43-.82,.87-1.2,1.29-1.17,1.3-2.33,2.69-3.43,4.12-8.62,11.26-14.88,26.37-19.13,46.22-.85,3.94-1.41,7.78-1.67,11.41-1.07,14.8-.8,30.19,.8,45.73,.03,.32-.05,.64-.24,.9l-4.44,6.22ZM64.23,13.93s0,0,0,0c0,0,0,0,0,0Z"/>
      <path class="cls-5" d="M54.36,23.8c-.16,0-.32-.03-.47-.09-.5-.18-.85-.67-.85-1.23,0-.72,.59-1.31,1.31-1.31,.17,0,.34,.03,.5,.1,.67,.27,1,1.03,.73,1.7-.2,.51-.69,.83-1.21,.83Z"/>
      <path class="cls-5" d="M60.8,17.18c-2.97,0-7.84-.36-11.12-2.44-.61-.39-.79-1.2-.4-1.81,.39-.61,1.2-.79,1.81-.4,1.69,1.07,4.3,1.75,7.54,1.96,2.52,.16,4.5-.01,4.52-.01,.72-.07,1.36,.46,1.42,1.18,.07,.72-.46,1.36-1.18,1.42-.12,.01-1.12,.1-2.58,.1Z"/>
      <path class="cls-5" d="M28.29,91.44c-.26,0-.52-.08-.74-.23-.33-.22-.54-.59-.57-.98-.08-1.12-.16-2.25-.23-3.34-.21-3.24-.41-6.29-.87-9.34-.68-4.56-1.84-8.21-3.64-11.49-1.5-2.73-3.34-4.82-5.46-6.21-.61-.4-.78-1.21-.38-1.81,.4-.61,1.21-.78,1.81-.38,2.49,1.63,4.61,4.03,6.32,7.14,1.95,3.56,3.2,7.49,3.93,12.36,.47,3.16,.69,6.41,.89,9.56,.03,.42,.06,.85,.08,1.28,1.33-1.04,2.72-2.75,3.61-4.25,1.76-2.97,2.5-7.11,2.26-12.65-.19-4.34-1.15-8.87-2.85-13.48-2.44-6.61-6.3-13.37-12.16-21.25-.43-.58-.31-1.4,.27-1.83,.58-.43,1.4-.31,1.83,.27,6.01,8.09,9.99,15.05,12.52,21.9,1.79,4.86,2.8,9.66,3.01,14.27,.26,6.06-.59,10.68-2.62,14.1-1.15,1.93-3.84,5.44-6.64,6.3-.13,.04-.26,.06-.38,.06Z"/>
      <path class="cls-5" d="M46.38,25.86c-1,0-1.86-.16-2.63-.48-2.41-.99-3.53-3.32-4.94-6.28-.41-.86-.84-1.75-1.34-2.72-3.24-6.19-5.79-5.68-5.82-5.68,.04,0,.06-.02,.06-.02l-.86-2.48c.46-.16,4.61-1.32,8.94,6.96,.53,1.01,.98,1.96,1.39,2.8,1.26,2.64,2.1,4.38,3.58,4.99,1.63,.67,4.45,.15,9.15-1.68,.67-.26,1.43,.07,1.7,.74,.26,.67-.07,1.43-.74,1.7-3.72,1.45-6.39,2.15-8.46,2.15Z"/>
      <path class="cls-5" d="M45.1,32.46c-2.59,0-4.99-.75-7.21-2.72-2.18-1.93-4.05-4.93-5.7-9.18-1.91-4.89-3.57-5.85-4.04-5.81-.46,.18-1.01,.08-1.38-.29-.52-.51-.53-1.33-.02-1.85h0c.11-.11,.24-.21,.38-.27,.23-.11,1.09-.43,2.27,.04,1.9,.76,3.66,3.19,5.23,7.23,1.5,3.85,3.14,6.53,5,8.17,4.36,3.86,9.87,1.67,17.48-1.37,.78-.31,1.58-.63,2.39-.95,.67-.26,1.43,.07,1.7,.74,.26,.67-.07,1.43-.74,1.7-.81,.32-1.6,.63-2.38,.94-4.72,1.88-9.06,3.61-12.98,3.61Z"/>
      <path class="cls-5" d="M42.95,127.27c-.55,0-1.06-.35-1.24-.9-1.45-4.44-4.41-7.47-8.8-9-3.32-1.16-6.2-.99-6.23-.99-.72,.05-1.35-.5-1.39-1.22-.05-.72,.5-1.35,1.22-1.39,.14,0,3.44-.21,7.26,1.13,5.13,1.79,8.73,5.47,10.43,10.66,.22,.69-.15,1.43-.84,1.65-.14,.04-.27,.07-.41,.07Z"/>
    </g>
  </g>
</svg>