<?xml version="1.0" standalone="no"?>
<svg xmlns="http://www.w3.org/2000/svg" width="500" height="500"><defs><clipPath id="clip-path-dot-color"><path d="M 19 131v 14h 7a 7 7, 0, 0, 0, 0 -14" transform="rotate(180,26,138)"/><circle cx="26" cy="166" r="7" transform="rotate(0,26,166)"/><circle cx="26" cy="250" r="7" transform="rotate(0,26,250)"/><circle cx="26" cy="278" r="7" transform="rotate(0,26,278)"/><path d="M 19 327v 14h 7a 7 7, 0, 0, 0, 0 -14" transform="rotate(-90,26,334)"/><rect x="19" y="341" width="14" height="14" transform="rotate(0,26,348)"/><path d="M 19 355v 14h 14v -7a 7 7, 0, 0, 0, -7 -7" transform="rotate(180,26,362)"/><rect x="33" y="131" width="14" height="14" transform="rotate(0,40,138)"/><path d="M 33 145v 14h 14v -7a 7 7, 0, 0, 0, -7 -7" transform="rotate(180,40,152)"/><path d="M 33 173v 14h 7a 7 7, 0, 0, 0, 0 -14" transform="rotate(-90,40,180)"/><path d="M 33 187v 14h 7a 7 7, 0, 0, 0, 0 -14" transform="rotate(90,40,194)"/><path d="M 33 215v 14h 7a 7 7, 0, 0, 0, 0 -14" transform="rotate(-90,40,222)"/><path d="M 33 229v 14h 14v -7a 7 7, 0, 0, 0, -7 -7" transform="rotate(180,40,236)"/><circle cx="40" cy="264" r="7" transform="rotate(0,40,264)"/><path d="M 33 285v 14h 14v -7a 7 7, 0, 0, 0, -7 -7" transform="rotate(-90,40,292)"/><rect x="33" y="299" width="14" height="14" transform="rotate(0,40,306)"/><path d="M 33 313v 14h 7a 7 7, 0, 0, 0, 0 -14" transform="rotate(90,40,320)"/><rect x="33" y="341" width="14" height="14" transform="rotate(0,40,348)"/><rect x="33" y="355" width="14" height="14" transform="rotate(0,40,362)"/><rect x="47" y="131" width="14" height="14" transform="rotate(0,54,138)"/><path d="M 47 145v 14h 14v -7a 7 7, 0, 0, 0, -7 -7" transform="rotate(90,54,152)"/><path d="M 47 229v 14h 7a 7 7, 0, 0, 0, 0 -14" transform="rotate(0,54,236)"/><path d="M 47 285v 14h 7a 7 7, 0, 0, 0, 0 -14" transform="rotate(0,54,292)"/><rect x="47" y="341" width="14" height="14" transform="rotate(0,54,348)"/><path d="M 47 355v 14h 14v -7a 7 7, 0, 0, 0, -7 -7" transform="rotate(90,54,362)"/><rect x="61" y="131" width="14" height="14" transform="rotate(0,68,138)"/><path d="M 61 159v 14h 7a 7 7, 0, 0, 0, 0 -14" transform="rotate(-90,68,166)"/><path d="M 61 173v 14h 7a 7 7, 0, 0, 0, 0 -14" transform="rotate(90,68,180)"/><circle cx="68" cy="208" r="7" transform="rotate(0,68,208)"/><path d="M 61 243v 14h 7a 7 7, 0, 0, 0, 0 -14" transform="rotate(-90,68,250)"/><path d="M 61 257v 14h 14v -7a 7 7, 0, 0, 0, -7 -7" transform="rotate(180,68,264)"/><path d="M 61 313v 14h 7a 7 7, 0, 0, 0, 0 -14" transform="rotate(180,68,320)"/><path d="M 61 341v 14h 7a 7 7, 0, 0, 0, 0 -14" transform="rotate(0,68,348)"/><path d="M 75 131v 14h 7a 7 7, 0, 0, 0, 0 -14" transform="rotate(0,82,138)"/><circle cx="82" cy="236" r="7" transform="rotate(0,82,236)"/><path d="M 75 257v 14h 7a 7 7, 0, 0, 0, 0 -14" transform="rotate(0,82,264)"/><path d="M 75 313v 14h 7a 7 7, 0, 0, 0, 0 -14" transform="rotate(0,82,320)"/><circle cx="96" cy="180" r="7" transform="rotate(0,96,180)"/><path d="M 89 201v 14h 7a 7 7, 0, 0, 0, 0 -14" transform="rotate(-90,96,208)"/><path d="M 89 215v 14h 14v -7a 7 7, 0, 0, 0, -7 -7" transform="rotate(180,96,222)"/><path d="M 89 243v 14h 7a 7 7, 0, 0, 0, 0 -14" transform="rotate(180,96,250)"/><path d="M 89 327v 14h 7a 7 7, 0, 0, 0, 0 -14" transform="rotate(180,96,334)"/><path d="M 103 131v 14h 7a 7 7, 0, 0, 0, 0 -14" transform="rotate(180,110,138)"/><circle cx="110" cy="166" r="7" transform="rotate(0,110,166)"/><path d="M 103 187v 14h 7a 7 7, 0, 0, 0, 0 -14" transform="rotate(180,110,194)"/><path d="M 103 215v 14h 7a 7 7, 0, 0, 0, 0 -14" transform="rotate(0,110,222)"/><path d="M 103 243v 14h 7a 7 7, 0, 0, 0, 0 -14" transform="rotate(0,110,250)"/><circle cx="110" cy="278" r="7" transform="rotate(0,110,278)"/><path d="M 103 299v 14h 7a 7 7, 0, 0, 0, 0 -14" transform="rotate(180,110,306)"/><path d="M 103 327v 14h 7a 7 7, 0, 0, 0, 0 -14" transform="rotate(0,110,334)"/><path d="M 103 355v 14h 7a 7 7, 0, 0, 0, 0 -14" transform="rotate(180,110,362)"/><path d="M 117 131v 14h 7a 7 7, 0, 0, 0, 0 -14" transform="rotate(0,124,138)"/><path d="M 117 187v 14h 14v -7a 7 7, 0, 0, 0, -7 -7" transform="rotate(0,124,194)"/><path d="M 117 201v 14h 7a 7 7, 0, 0, 0, 0 -14" transform="rotate(90,124,208)"/><path d="M 117 257v 14h 7a 7 7, 0, 0, 0, 0 -14" transform="rotate(180,124,264)"/><rect x="117" y="299" width="14" height="14" transform="rotate(0,124,306)"/><path d="M 117 313v 14h 14v -7a 7 7, 0, 0, 0, -7 -7" transform="rotate(180,124,320)"/><path d="M 117 355v 14h 7a 7 7, 0, 0, 0, 0 -14" transform="rotate(0,124,362)"/><path d="M 131 33v 14h 14v -7a 7 7, 0, 0, 0, -7 -7" transform="rotate(-90,138,40)"/><path d="M 131 47v 14h 7a 7 7, 0, 0, 0, 0 -14" transform="rotate(90,138,54)"/><circle cx="138" cy="82" r="7" transform="rotate(0,138,82)"/><path d="M 131 103v 14h 7a 7 7, 0, 0, 0, 0 -14" transform="rotate(-90,138,110)"/><path d="M 131 117v 14h 7a 7 7, 0, 0, 0, 0 -14" transform="rotate(90,138,124)"/><circle cx="138" cy="166" r="7" transform="rotate(0,138,166)"/><path d="M 131 215v 14h 14v -7a 7 7, 0, 0, 0, -7 -7" transform="rotate(-90,138,222)"/><path d="M 131 229v 14h 14v -7a 7 7, 0, 0, 0, -7 -7" transform="rotate(180,138,236)"/><path d="M 131 257v 14h 7a 7 7, 0, 0, 0, 0 -14" transform="rotate(0,138,264)"/><path d="M 131 285v 14h 7a 7 7, 0, 0, 0, 0 -14" transform="rotate(-90,138,292)"/><rect x="131" y="299" width="14" height="14" transform="rotate(0,138,306)"/><path d="M 131 313v 14h 14v -7a 7 7, 0, 0, 0, -7 -7" transform="rotate(90,138,320)"/><circle cx="138" cy="348" r="7" transform="rotate(0,138,348)"/><path d="M 131 383v 14h 7a 7 7, 0, 0, 0, 0 -14" transform="rotate(180,138,390)"/><path d="M 131 411v 14h 7a 7 7, 0, 0, 0, 0 -14" transform="rotate(-90,138,418)"/><rect x="131" y="425" width="14" height="14" transform="rotate(0,138,432)"/><rect x="131" y="439" width="14" height="14" transform="rotate(0,138,446)"/><rect x="131" y="453" width="14" height="14" transform="rotate(0,138,460)"/><path d="M 131 467v 14h 7a 7 7, 0, 0, 0, 0 -14" transform="rotate(90,138,474)"/><path d="M 145 33v 14h 7a 7 7, 0, 0, 0, 0 -14" transform="rotate(0,152,40)"/><path d="M 145 61v 14h 7a 7 7, 0, 0, 0, 0 -14" transform="rotate(180,152,68)"/><circle cx="152" cy="96" r="7" transform="rotate(0,152,96)"/><path d="M 145 173v 14h 14v -7a 7 7, 0, 0, 0, -7 -7" transform="rotate(-90,152,180)"/><path d="M 145 187v 14h 14v -7a 7 7, 0, 0, 0, -7 -7" transform="rotate(180,152,194)"/><rect x="145" y="215" width="14" height="14" transform="rotate(0,152,222)"/><path d="M 145 229v 14h 14v -7a 7 7, 0, 0, 0, -7 -7" transform="rotate(90,152,236)"/><path d="M 145 299v 14h 7a 7 7, 0, 0, 0, 0 -14" transform="rotate(0,152,306)"/><path d="M 145 355v 14h 7a 7 7, 0, 0, 0, 0 -14" transform="rotate(-90,152,362)"/><rect x="145" y="369" width="14" height="14" transform="rotate(0,152,376)"/><rect x="145" y="383" width="14" height="14" transform="rotate(0,152,390)"/><path d="M 145 397v 14h 14v -7a 7 7, 0, 0, 0, -7 -7" transform="rotate(180,152,404)"/><rect x="145" y="453" width="14" height="14" transform="rotate(0,152,460)"/><rect x="159" y="61" width="14" height="14" transform="rotate(0,166,68)"/><path d="M 159 75v 14h 7a 7 7, 0, 0, 0, 0 -14" transform="rotate(90,166,82)"/><path d="M 159 103v 14h 7a 7 7, 0, 0, 0, 0 -14" transform="rotate(-90,166,110)"/><path d="M 159 117v 14h 14v -7a 7 7, 0, 0, 0, -7 -7" transform="rotate(180,166,124)"/><path d="M 159 173v 14h 14v -7a 7 7, 0, 0, 0, -7 -7" transform="rotate(0,166,180)"/><rect x="159" y="187" width="14" height="14" transform="rotate(0,166,194)"/><path d="M 159 215v 14h 7a 7 7, 0, 0, 0, 0 -14" transform="rotate(0,166,222)"/><path d="M 159 243v 14h 14v -7a 7 7, 0, 0, 0, -7 -7" transform="rotate(-90,166,250)"/><path d="M 159 257v 14h 7a 7 7, 0, 0, 0, 0 -14" transform="rotate(90,166,264)"/><circle cx="166" cy="320" r="7" transform="rotate(0,166,320)"/><path d="M 159 397v 14h 7a 7 7, 0, 0, 0, 0 -14" transform="rotate(0,166,404)"/><path d="M 159 439v 14h 7a 7 7, 0, 0, 0, 0 -14" transform="rotate(-90,166,446)"/><rect x="159" y="453" width="14" height="14" transform="rotate(0,166,460)"/><path d="M 159 467v 14h 14v -7a 7 7, 0, 0, 0, -7 -7" transform="rotate(180,166,474)"/><path d="M 173 33v 14h 7a 7 7, 0, 0, 0, 0 -14" transform="rotate(-90,180,40)"/><rect x="173" y="47" width="14" height="14" transform="rotate(0,180,54)"/><rect x="173" y="61" width="14" height="14" transform="rotate(0,180,68)"/><path d="M 173 89v 14h 7a 7 7, 0, 0, 0, 0 -14" transform="rotate(180,180,96)"/><rect x="173" y="117" width="14" height="14" transform="rotate(0,180,124)"/><circle cx="180" cy="166" r="7" transform="rotate(0,180,166)"/><rect x="173" y="187" width="14" height="14" transform="rotate(0,180,194)"/><path d="M 173 201v 14h 14v -7a 7 7, 0, 0, 0, -7 -7" transform="rotate(180,180,208)"/><path d="M 173 243v 14h 7a 7 7, 0, 0, 0, 0 -14" transform="rotate(0,180,250)"/><circle cx="180" cy="306" r="7" transform="rotate(0,180,306)"/><path d="M 173 341v 14h 14v -7a 7 7, 0, 0, 0, -7 -7" transform="rotate(-90,180,348)"/><rect x="173" y="355" width="14" height="14" transform="rotate(0,180,362)"/><path d="M 173 369v 14h 14v -7a 7 7, 0, 0, 0, -7 -7" transform="rotate(180,180,376)"/><circle cx="180" cy="418" r="7" transform="rotate(0,180,418)"/><rect x="173" y="467" width="14" height="14" transform="rotate(0,180,474)"/><path d="M 187 61v 14h 14v -7a 7 7, 0, 0, 0, -7 -7" transform="rotate(0,194,68)"/><rect x="187" y="75" width="14" height="14" transform="rotate(0,194,82)"/><rect x="187" y="89" width="14" height="14" transform="rotate(0,194,96)"/><rect x="187" y="103" width="14" height="14" transform="rotate(0,194,110)"/><path d="M 187 117v 14h 14v -7a 7 7, 0, 0, 0, -7 -7" transform="rotate(90,194,124)"/><path d="M 187 173v 14h 14v -7a 7 7, 0, 0, 0, -7 -7" transform="rotate(-90,194,180)"/><rect x="187" y="187" width="14" height="14" transform="rotate(0,194,194)"/><rect x="187" y="201" width="14" height="14" transform="rotate(0,194,208)"/><circle cx="194" cy="236" r="7" transform="rotate(0,194,236)"/><rect x="187" y="341" width="14" height="14" transform="rotate(0,194,348)"/><rect x="187" y="355" width="14" height="14" transform="rotate(0,194,362)"/><rect x="187" y="369" width="14" height="14" transform="rotate(0,194,376)"/><rect x="187" y="383" width="14" height="14" transform="rotate(0,194,390)"/><path d="M 187 397v 14h 14v -7a 7 7, 0, 0, 0, -7 -7" transform="rotate(180,194,404)"/><circle cx="194" cy="432" r="7" transform="rotate(0,194,432)"/><rect x="187" y="467" width="14" height="14" transform="rotate(0,194,474)"/><path d="M 201 33v 14h 7a 7 7, 0, 0, 0, 0 -14" transform="rotate(180,208,40)"/><path d="M 201 75v 14h 14v -7a 7 7, 0, 0, 0, -7 -7" transform="rotate(0,208,82)"/><path d="M 201 89v 14h 14v -7a 7 7, 0, 0, 0, -7 -7" transform="rotate(90,208,96)"/><circle cx="208" cy="138" r="7" transform="rotate(0,208,138)"/><path d="M 201 159v 14h 7a 7 7, 0, 0, 0, 0 -14" transform="rotate(-90,208,166)"/><path d="M 201 173v 14h 14v -7a 7 7, 0, 0, 0, -7 -7" transform="rotate(90,208,180)"/><rect x="201" y="201" width="14" height="14" transform="rotate(0,208,208)"/><path d="M 201 215v 14h 7a 7 7, 0, 0, 0, 0 -14" transform="rotate(90,208,222)"/><circle cx="208" cy="250" r="7" transform="rotate(0,208,250)"/><circle cx="208" cy="292" r="7" transform="rotate(0,208,292)"/><path d="M 201 313v 14h 7a 7 7, 0, 0, 0, 0 -14" transform="rotate(180,208,320)"/><path d="M 201 341v 14h 7a 7 7, 0, 0, 0, 0 -14" transform="rotate(0,208,348)"/><rect x="201" y="369" width="14" height="14" transform="rotate(0,208,376)"/><path d="M 201 397v 14h 7a 7 7, 0, 0, 0, 0 -14" transform="rotate(0,208,404)"/><circle cx="208" cy="446" r="7" transform="rotate(0,208,446)"/><rect x="201" y="467" width="14" height="14" transform="rotate(0,208,474)"/><path d="M 215 33v 14h 14v -7a 7 7, 0, 0, 0, -7 -7" transform="rotate(0,222,40)"/><rect x="215" y="47" width="14" height="14" transform="rotate(0,222,54)"/><path d="M 215 61v 14h 7a 7 7, 0, 0, 0, 0 -14" transform="rotate(90,222,68)"/><path d="M 215 103v 14h 7a 7 7, 0, 0, 0, 0 -14" transform="rotate(-90,222,110)"/><path d="M 215 117v 14h 7a 7 7, 0, 0, 0, 0 -14" transform="rotate(90,222,124)"/><rect x="215" y="201" width="14" height="14" transform="rotate(0,222,208)"/><circle cx="222" cy="236" r="7" transform="rotate(0,222,236)"/><path d="M 215 257v 14h 7a 7 7, 0, 0, 0, 0 -14" transform="rotate(180,222,264)"/><rect x="215" y="313" width="14" height="14" transform="rotate(0,222,320)"/><path d="M 215 369v 14h 7a 7 7, 0, 0, 0, 0 -14" transform="rotate(0,222,376)"/><path d="M 215 453v 14h 14v -7a 7 7, 0, 0, 0, -7 -7" transform="rotate(-90,222,460)"/><path d="M 215 467v 14h 14v -7a 7 7, 0, 0, 0, -7 -7" transform="rotate(90,222,474)"/><path d="M 229 19v 14h 7a 7 7, 0, 0, 0, 0 -14" transform="rotate(180,236,26)"/><circle cx="236" cy="82" r="7" transform="rotate(0,236,82)"/><path d="M 229 145v 14h 7a 7 7, 0, 0, 0, 0 -14" transform="rotate(180,236,152)"/><rect x="229" y="201" width="14" height="14" transform="rotate(0,236,208)"/><path d="M 229 215v 14h 14v -7a 7 7, 0, 0, 0, -7 -7" transform="rotate(180,236,222)"/><rect x="229" y="257" width="14" height="14" transform="rotate(0,236,264)"/><circle cx="236" cy="292" r="7" transform="rotate(0,236,292)"/><rect x="229" y="313" width="14" height="14" transform="rotate(0,236,320)"/><rect x="229" y="327" width="14" height="14" transform="rotate(0,236,334)"/><path d="M 229 341v 14h 7a 7 7, 0, 0, 0, 0 -14" transform="rotate(90,236,348)"/><path d="M 229 383v 14h 7a 7 7, 0, 0, 0, 0 -14" transform="rotate(180,236,390)"/><circle cx="236" cy="418" r="7" transform="rotate(0,236,418)"/><path d="M 229 453v 14h 7a 7 7, 0, 0, 0, 0 -14" transform="rotate(0,236,460)"/><path d="M 243 19v 14h 7a 7 7, 0, 0, 0, 0 -14" transform="rotate(0,250,26)"/><path d="M 243 47v 14h 7a 7 7, 0, 0, 0, 0 -14" transform="rotate(-90,250,54)"/><path d="M 243 61v 14h 7a 7 7, 0, 0, 0, 0 -14" transform="rotate(90,250,68)"/><circle cx="250" cy="110" r="7" transform="rotate(0,250,110)"/><path d="M 243 145v 14h 14v -7a 7 7, 0, 0, 0, -7 -7" transform="rotate(0,250,152)"/><rect x="243" y="159" width="14" height="14" transform="rotate(0,250,166)"/><rect x="243" y="173" width="14" height="14" transform="rotate(0,250,180)"/><rect x="243" y="187" width="14" height="14" transform="rotate(0,250,194)"/><rect x="243" y="201" width="14" height="14" transform="rotate(0,250,208)"/><rect x="243" y="215" width="14" height="14" transform="rotate(0,250,222)"/><path d="M 243 229v 14h 7a 7 7, 0, 0, 0, 0 -14" transform="rotate(90,250,236)"/><path d="M 243 257v 14h 14v -7a 7 7, 0, 0, 0, -7 -7" transform="rotate(0,250,264)"/><path d="M 243 271v 14h 14v -7a 7 7, 0, 0, 0, -7 -7" transform="rotate(180,250,278)"/><path d="M 243 299v 14h 14v -7a 7 7, 0, 0, 0, -7 -7" transform="rotate(-90,250,306)"/><rect x="243" y="313" width="14" height="14" transform="rotate(0,250,320)"/><path d="M 243 355v 14h 14v -7a 7 7, 0, 0, 0, -7 -7" transform="rotate(-90,250,362)"/><rect x="243" y="369" width="14" height="14" transform="rotate(0,250,376)"/><rect x="243" y="383" width="14" height="14" transform="rotate(0,250,390)"/><path d="M 243 425v 14h 7a 7 7, 0, 0, 0, 0 -14" transform="rotate(-90,250,432)"/><path d="M 243 439v 14h 7a 7 7, 0, 0, 0, 0 -14" transform="rotate(90,250,446)"/><circle cx="264" cy="40" r="7" transform="rotate(0,264,40)"/><circle cx="264" cy="96" r="7" transform="rotate(0,264,96)"/><circle cx="264" cy="138" r="7" transform="rotate(0,264,138)"/><path d="M 257 159v 14h 7a 7 7, 0, 0, 0, 0 -14" transform="rotate(0,264,166)"/><rect x="257" y="187" width="14" height="14" transform="rotate(0,264,194)"/><path d="M 257 201v 14h 14v -7a 7 7, 0, 0, 0, -7 -7" transform="rotate(90,264,208)"/><circle cx="264" cy="250" r="7" transform="rotate(0,264,250)"/><path d="M 257 271v 14h 7a 7 7, 0, 0, 0, 0 -14" transform="rotate(0,264,278)"/><rect x="257" y="299" width="14" height="14" transform="rotate(0,264,306)"/><path d="M 257 313v 14h 14v -7a 7 7, 0, 0, 0, -7 -7" transform="rotate(90,264,320)"/><rect x="257" y="355" width="14" height="14" transform="rotate(0,264,362)"/><rect x="257" y="369" width="14" height="14" transform="rotate(0,264,376)"/><rect x="257" y="383" width="14" height="14" transform="rotate(0,264,390)"/><path d="M 257 397v 14h 7a 7 7, 0, 0, 0, 0 -14" transform="rotate(90,264,404)"/><path d="M 257 467v 14h 7a 7 7, 0, 0, 0, 0 -14" transform="rotate(180,264,474)"/><path d="M 271 19v 14h 7a 7 7, 0, 0, 0, 0 -14" transform="rotate(180,278,26)"/><path d="M 271 47v 14h 14v -7a 7 7, 0, 0, 0, -7 -7" transform="rotate(-90,278,54)"/><rect x="271" y="61" width="14" height="14" transform="rotate(0,278,68)"/><path d="M 271 75v 14h 14v -7a 7 7, 0, 0, 0, -7 -7" transform="rotate(180,278,82)"/><path d="M 271 103v 14h 7a 7 7, 0, 0, 0, 0 -14" transform="rotate(-90,278,110)"/><path d="M 271 117v 14h 14v -7a 7 7, 0, 0, 0, -7 -7" transform="rotate(180,278,124)"/><path d="M 271 187v 14h 7a 7 7, 0, 0, 0, 0 -14" transform="rotate(0,278,194)"/><path d="M 271 215v 14h 7a 7 7, 0, 0, 0, 0 -14" transform="rotate(180,278,222)"/><path d="M 271 257v 14h 7a 7 7, 0, 0, 0, 0 -14" transform="rotate(180,278,264)"/><path d="M 271 299v 14h 7a 7 7, 0, 0, 0, 0 -14" transform="rotate(0,278,306)"/><path d="M 271 327v 14h 7a 7 7, 0, 0, 0, 0 -14" transform="rotate(180,278,334)"/><path d="M 271 355v 14h 14v -7a 7 7, 0, 0, 0, -7 -7" transform="rotate(0,278,362)"/><rect x="271" y="369" width="14" height="14" transform="rotate(0,278,376)"/><path d="M 271 383v 14h 14v -7a 7 7, 0, 0, 0, -7 -7" transform="rotate(90,278,390)"/><circle cx="278" cy="446" r="7" transform="rotate(0,278,446)"/><path d="M 271 467v 14h 7a 7 7, 0, 0, 0, 0 -14" transform="rotate(0,278,474)"/><rect x="285" y="19" width="14" height="14" transform="rotate(0,292,26)"/><rect x="285" y="47" width="14" height="14" transform="rotate(0,292,54)"/><path d="M 285 75v 14h 14v -7a 7 7, 0, 0, 0, -7 -7" transform="rotate(0,292,82)"/><path d="M 285 89v 14h 7a 7 7, 0, 0, 0, 0 -14" transform="rotate(90,292,96)"/><path d="M 285 117v 14h 7a 7 7, 0, 0, 0, 0 -14" transform="rotate(0,292,124)"/><path d="M 285 145v 14h 7a 7 7, 0, 0, 0, 0 -14" transform="rotate(-90,292,152)"/><rect x="285" y="159" width="14" height="14" transform="rotate(0,292,166)"/><path d="M 285 173v 14h 14v -7a 7 7, 0, 0, 0, -7 -7" transform="rotate(180,292,180)"/><path d="M 285 201v 14h 7a 7 7, 0, 0, 0, 0 -14" transform="rotate(-90,292,208)"/><rect x="285" y="215" width="14" height="14" transform="rotate(0,292,222)"/><path d="M 285 257v 14h 14v -7a 7 7, 0, 0, 0, -7 -7" transform="rotate(0,292,264)"/><path d="M 285 271v 14h 7a 7 7, 0, 0, 0, 0 -14" transform="rotate(90,292,278)"/><path d="M 285 313v 14h 7a 7 7, 0, 0, 0, 0 -14" transform="rotate(-90,292,320)"/><rect x="285" y="327" width="14" height="14" transform="rotate(0,292,334)"/><path d="M 285 397v 14h 7a 7 7, 0, 0, 0, 0 -14" transform="rotate(-90,292,404)"/><path d="M 285 411v 14h 14v -7a 7 7, 0, 0, 0, -7 -7" transform="rotate(180,292,418)"/><circle cx="292" cy="460" r="7" transform="rotate(0,292,460)"/><path d="M 299 19v 14h 7a 7 7, 0, 0, 0, 0 -14" transform="rotate(0,306,26)"/><path d="M 299 47v 14h 7a 7 7, 0, 0, 0, 0 -14" transform="rotate(0,306,54)"/><circle cx="306" cy="110" r="7" transform="rotate(0,306,110)"/><rect x="299" y="159" width="14" height="14" transform="rotate(0,306,166)"/><rect x="299" y="173" width="14" height="14" transform="rotate(0,306,180)"/><path d="M 299 187v 14h 14v -7a 7 7, 0, 0, 0, -7 -7" transform="rotate(180,306,194)"/><path d="M 299 215v 14h 14v -7a 7 7, 0, 0, 0, -7 -7" transform="rotate(0,306,222)"/><rect x="299" y="229" width="14" height="14" transform="rotate(0,306,236)"/><path d="M 299 243v 14h 7a 7 7, 0, 0, 0, 0 -14" transform="rotate(90,306,250)"/><path d="M 299 299v 14h 7a 7 7, 0, 0, 0, 0 -14" transform="rotate(180,306,306)"/><rect x="299" y="327" width="14" height="14" transform="rotate(0,306,334)"/><path d="M 299 355v 14h 7a 7 7, 0, 0, 0, 0 -14" transform="rotate(180,306,362)"/><path d="M 299 383v 14h 7a 7 7, 0, 0, 0, 0 -14" transform="rotate(180,306,390)"/><path d="M 299 411v 14h 14v -7a 7 7, 0, 0, 0, -7 -7" transform="rotate(0,306,418)"/><path d="M 299 425v 14h 14v -7a 7 7, 0, 0, 0, -7 -7" transform="rotate(180,306,432)"/><circle cx="320" cy="68" r="7" transform="rotate(0,320,68)"/><path d="M 313 117v 14h 7a 7 7, 0, 0, 0, 0 -14" transform="rotate(-90,320,124)"/><path d="M 313 131v 14h 7a 7 7, 0, 0, 0, 0 -14" transform="rotate(90,320,138)"/><rect x="313" y="159" width="14" height="14" transform="rotate(0,320,166)"/><path d="M 313 187v 14h 7a 7 7, 0, 0, 0, 0 -14" transform="rotate(0,320,194)"/><rect x="313" y="229" width="14" height="14" transform="rotate(0,320,236)"/><path d="M 313 285v 14h 14v -7a 7 7, 0, 0, 0, -7 -7" transform="rotate(-90,320,292)"/><rect x="313" y="299" width="14" height="14" transform="rotate(0,320,306)"/><path d="M 313 327v 14h 14v -7a 7 7, 0, 0, 0, -7 -7" transform="rotate(0,320,334)"/><rect x="313" y="341" width="14" height="14" transform="rotate(0,320,348)"/><path d="M 313 355v 14h 14v -7a 7 7, 0, 0, 0, -7 -7" transform="rotate(90,320,362)"/><rect x="313" y="383" width="14" height="14" transform="rotate(0,320,390)"/><rect x="313" y="425" width="14" height="14" transform="rotate(0,320,432)"/><rect x="313" y="439" width="14" height="14" transform="rotate(0,320,446)"/><rect x="313" y="453" width="14" height="14" transform="rotate(0,320,460)"/><path d="M 313 467v 14h 14v -7a 7 7, 0, 0, 0, -7 -7" transform="rotate(180,320,474)"/><circle cx="334" cy="26" r="7" transform="rotate(0,334,26)"/><path d="M 327 47v 14h 7a 7 7, 0, 0, 0, 0 -14" transform="rotate(180,334,54)"/><path d="M 327 75v 14h 14v -7a 7 7, 0, 0, 0, -7 -7" transform="rotate(-90,334,82)"/><rect x="327" y="89" width="14" height="14" transform="rotate(0,334,96)"/><path d="M 327 103v 14h 7a 7 7, 0, 0, 0, 0 -14" transform="rotate(90,334,110)"/><rect x="327" y="159" width="14" height="14" transform="rotate(0,334,166)"/><path d="M 327 215v 14h 14v -7a 7 7, 0, 0, 0, -7 -7" transform="rotate(-90,334,222)"/><path d="M 327 229v 14h 14v -7a 7 7, 0, 0, 0, -7 -7" transform="rotate(90,334,236)"/><circle cx="334" cy="264" r="7" transform="rotate(0,334,264)"/><path d="M 327 285v 14h 14v -7a 7 7, 0, 0, 0, -7 -7" transform="rotate(0,334,292)"/><rect x="327" y="299" width="14" height="14" transform="rotate(0,334,306)"/><path d="M 327 369v 14h 14v -7a 7 7, 0, 0, 0, -7 -7" transform="rotate(-90,334,376)"/><rect x="327" y="383" width="14" height="14" transform="rotate(0,334,390)"/><rect x="327" y="425" width="14" height="14" transform="rotate(0,334,432)"/><rect x="327" y="439" width="14" height="14" transform="rotate(0,334,446)"/><rect x="327" y="453" width="14" height="14" transform="rotate(0,334,460)"/><rect x="327" y="467" width="14" height="14" transform="rotate(0,334,474)"/><path d="M 341 33v 14h 7a 7 7, 0, 0, 0, 0 -14" transform="rotate(-90,348,40)"/><rect x="341" y="47" width="14" height="14" transform="rotate(0,348,54)"/><rect x="341" y="61" width="14" height="14" transform="rotate(0,348,68)"/><rect x="341" y="75" width="14" height="14" transform="rotate(0,348,82)"/><path d="M 341 117v 14h 7a 7 7, 0, 0, 0, 0 -14" transform="rotate(-90,348,124)"/><rect x="341" y="131" width="14" height="14" transform="rotate(0,348,138)"/><rect x="341" y="145" width="14" height="14" transform="rotate(0,348,152)"/><rect x="341" y="159" width="14" height="14" transform="rotate(0,348,166)"/><path d="M 341 173v 14h 14v -7a 7 7, 0, 0, 0, -7 -7" transform="rotate(180,348,180)"/><path d="M 341 215v 14h 7a 7 7, 0, 0, 0, 0 -14" transform="rotate(0,348,222)"/><path d="M 341 271v 14h 7a 7 7, 0, 0, 0, 0 -14" transform="rotate(180,348,278)"/><path d="M 341 299v 14h 14v -7a 7 7, 0, 0, 0, -7 -7" transform="rotate(0,348,306)"/><path d="M 341 313v 14h 14v -7a 7 7, 0, 0, 0, -7 -7" transform="rotate(180,348,320)"/><path d="M 341 341v 14h 7a 7 7, 0, 0, 0, 0 -14" transform="rotate(-90,348,348)"/><rect x="341" y="355" width="14" height="14" transform="rotate(0,348,362)"/><rect x="341" y="369" width="14" height="14" transform="rotate(0,348,376)"/><rect x="341" y="383" width="14" height="14" transform="rotate(0,348,390)"/><rect x="341" y="425" width="14" height="14" transform="rotate(0,348,432)"/><rect x="341" y="467" width="14" height="14" transform="rotate(0,348,474)"/><circle cx="362" cy="26" r="7" transform="rotate(0,362,26)"/><path d="M 355 75v 14h 7a 7 7, 0, 0, 0, 0 -14" transform="rotate(0,362,82)"/><circle cx="362" cy="110" r="7" transform="rotate(0,362,110)"/><rect x="355" y="131" width="14" height="14" transform="rotate(0,362,138)"/><rect x="355" y="159" width="14" height="14" transform="rotate(0,362,166)"/><rect x="355" y="173" width="14" height="14" transform="rotate(0,362,180)"/><path d="M 355 187v 14h 14v -7a 7 7, 0, 0, 0, -7 -7" transform="rotate(180,362,194)"/><circle cx="362" cy="236" r="7" transform="rotate(0,362,236)"/><rect x="355" y="271" width="14" height="14" transform="rotate(0,362,278)"/><path d="M 355 285v 14h 7a 7 7, 0, 0, 0, 0 -14" transform="rotate(90,362,292)"/><path d="M 355 313v 14h 7a 7 7, 0, 0, 0, 0 -14" transform="rotate(0,362,320)"/><rect x="355" y="355" width="14" height="14" transform="rotate(0,362,362)"/><rect x="355" y="369" width="14" height="14" transform="rotate(0,362,376)"/><rect x="355" y="383" width="14" height="14" transform="rotate(0,362,390)"/><rect x="355" y="397" width="14" height="14" transform="rotate(0,362,404)"/><rect x="355" y="411" width="14" height="14" transform="rotate(0,362,418)"/><rect x="355" y="425" width="14" height="14" transform="rotate(0,362,432)"/><path d="M 355 467v 14h 7a 7 7, 0, 0, 0, 0 -14" transform="rotate(0,362,474)"/><rect x="369" y="131" width="14" height="14" transform="rotate(0,376,138)"/><path d="M 369 159v 14h 7a 7 7, 0, 0, 0, 0 -14" transform="rotate(0,376,166)"/><rect x="369" y="187" width="14" height="14" transform="rotate(0,376,194)"/><path d="M 369 215v 14h 7a 7 7, 0, 0, 0, 0 -14" transform="rotate(180,376,222)"/><rect x="369" y="271" width="14" height="14" transform="rotate(0,376,278)"/><rect x="369" y="355" width="14" height="14" transform="rotate(0,376,362)"/><rect x="369" y="411" width="14" height="14" transform="rotate(0,376,418)"/><path d="M 369 425v 14h 14v -7a 7 7, 0, 0, 0, -7 -7" transform="rotate(90,376,432)"/><path d="M 369 453v 14h 7a 7 7, 0, 0, 0, 0 -14" transform="rotate(180,376,460)"/><path d="M 383 131v 14h 14v -7a 7 7, 0, 0, 0, -7 -7" transform="rotate(0,390,138)"/><path d="M 383 145v 14h 14v -7a 7 7, 0, 0, 0, -7 -7" transform="rotate(180,390,152)"/><path d="M 383 173v 14h 7a 7 7, 0, 0, 0, 0 -14" transform="rotate(-90,390,180)"/><path d="M 383 187v 14h 14v -7a 7 7, 0, 0, 0, -7 -7" transform="rotate(90,390,194)"/><rect x="383" y="215" width="14" height="14" transform="rotate(0,390,222)"/><path d="M 383 243v 14h 7a 7 7, 0, 0, 0, 0 -14" transform="rotate(180,390,250)"/><rect x="383" y="271" width="14" height="14" transform="rotate(0,390,278)"/><circle cx="390" cy="320" r="7" transform="rotate(0,390,320)"/><path d="M 383 341v 14h 7a 7 7, 0, 0, 0, 0 -14" transform="rotate(-90,390,348)"/><rect x="383" y="355" width="14" height="14" transform="rotate(0,390,362)"/><circle cx="390" cy="390" r="7" transform="rotate(0,390,390)"/><rect x="383" y="411" width="14" height="14" transform="rotate(0,390,418)"/><path d="M 383 439v 14h 7a 7 7, 0, 0, 0, 0 -14" transform="rotate(-90,390,446)"/><rect x="383" y="453" width="14" height="14" transform="rotate(0,390,460)"/><path d="M 383 467v 14h 14v -7a 7 7, 0, 0, 0, -7 -7" transform="rotate(180,390,474)"/><path d="M 397 145v 14h 7a 7 7, 0, 0, 0, 0 -14" transform="rotate(0,404,152)"/><rect x="397" y="215" width="14" height="14" transform="rotate(0,404,222)"/><rect x="397" y="229" width="14" height="14" transform="rotate(0,404,236)"/><rect x="397" y="243" width="14" height="14" transform="rotate(0,404,250)"/><rect x="397" y="257" width="14" height="14" transform="rotate(0,404,264)"/><rect x="397" y="271" width="14" height="14" transform="rotate(0,404,278)"/><circle cx="404" cy="306" r="7" transform="rotate(0,404,306)"/><rect x="397" y="355" width="14" height="14" transform="rotate(0,404,362)"/><rect x="397" y="411" width="14" height="14" transform="rotate(0,404,418)"/><rect x="397" y="467" width="14" height="14" transform="rotate(0,404,474)"/><circle cx="418" cy="138" r="7" transform="rotate(0,418,138)"/><circle cx="418" cy="166" r="7" transform="rotate(0,418,166)"/><path d="M 411 187v 14h 7a 7 7, 0, 0, 0, 0 -14" transform="rotate(180,418,194)"/><rect x="411" y="215" width="14" height="14" transform="rotate(0,418,222)"/><rect x="411" y="229" width="14" height="14" transform="rotate(0,418,236)"/><rect x="411" y="243" width="14" height="14" transform="rotate(0,418,250)"/><rect x="411" y="257" width="14" height="14" transform="rotate(0,418,264)"/><rect x="411" y="271" width="14" height="14" transform="rotate(0,418,278)"/><path d="M 411 285v 14h 14v -7a 7 7, 0, 0, 0, -7 -7" transform="rotate(180,418,292)"/><rect x="411" y="355" width="14" height="14" transform="rotate(0,418,362)"/><rect x="411" y="369" width="14" height="14" transform="rotate(0,418,376)"/><rect x="411" y="383" width="14" height="14" transform="rotate(0,418,390)"/><rect x="411" y="397" width="14" height="14" transform="rotate(0,418,404)"/><rect x="411" y="411" width="14" height="14" transform="rotate(0,418,418)"/><path d="M 411 425v 14h 7a 7 7, 0, 0, 0, 0 -14" transform="rotate(90,418,432)"/><rect x="411" y="467" width="14" height="14" transform="rotate(0,418,474)"/><circle cx="432" cy="152" r="7" transform="rotate(0,432,152)"/><path d="M 425 173v 14h 14v -7a 7 7, 0, 0, 0, -7 -7" transform="rotate(-90,432,180)"/><rect x="425" y="187" width="14" height="14" transform="rotate(0,432,194)"/><rect x="425" y="215" width="14" height="14" transform="rotate(0,432,222)"/><path d="M 425 243v 14h 14v -7a 7 7, 0, 0, 0, -7 -7" transform="rotate(0,432,250)"/><rect x="425" y="257" width="14" height="14" transform="rotate(0,432,264)"/><path d="M 425 285v 14h 7a 7 7, 0, 0, 0, 0 -14" transform="rotate(0,432,292)"/><circle cx="432" cy="320" r="7" transform="rotate(0,432,320)"/><path d="M 425 355v 14h 7a 7 7, 0, 0, 0, 0 -14" transform="rotate(0,432,362)"/><rect x="425" y="411" width="14" height="14" transform="rotate(0,432,418)"/><path d="M 425 453v 14h 7a 7 7, 0, 0, 0, 0 -14" transform="rotate(-90,432,460)"/><rect x="425" y="467" width="14" height="14" transform="rotate(0,432,474)"/><path d="M 439 131v 14h 7a 7 7, 0, 0, 0, 0 -14" transform="rotate(180,446,138)"/><path d="M 439 173v 14h 14v -7a 7 7, 0, 0, 0, -7 -7" transform="rotate(0,446,180)"/><path d="M 439 187v 14h 14v -7a 7 7, 0, 0, 0, -7 -7" transform="rotate(90,446,194)"/><path d="M 439 215v 14h 7a 7 7, 0, 0, 0, 0 -14" transform="rotate(0,446,222)"/><rect x="439" y="257" width="14" height="14" transform="rotate(0,446,264)"/><circle cx="446" cy="348" r="7" transform="rotate(0,446,348)"/><rect x="439" y="411" width="14" height="14" transform="rotate(0,446,418)"/><path d="M 439 467v 14h 7a 7 7, 0, 0, 0, 0 -14" transform="rotate(0,446,474)"/><path d="M 453 131v 14h 7a 7 7, 0, 0, 0, 0 -14" transform="rotate(0,460,138)"/><path d="M 453 201v 14h 7a 7 7, 0, 0, 0, 0 -14" transform="rotate(180,460,208)"/><path d="M 453 243v 14h 14v -7a 7 7, 0, 0, 0, -7 -7" transform="rotate(-90,460,250)"/><rect x="453" y="257" width="14" height="14" transform="rotate(0,460,264)"/><rect x="453" y="271" width="14" height="14" transform="rotate(0,460,278)"/><path d="M 453 285v 14h 7a 7 7, 0, 0, 0, 0 -14" transform="rotate(90,460,292)"/><path d="M 453 313v 14h 14v -7a 7 7, 0, 0, 0, -7 -7" transform="rotate(-90,460,320)"/><path d="M 453 327v 14h 14v -7a 7 7, 0, 0, 0, -7 -7" transform="rotate(180,460,334)"/><rect x="453" y="411" width="14" height="14" transform="rotate(0,460,418)"/><path d="M 453 453v 14h 7a 7 7, 0, 0, 0, 0 -14" transform="rotate(180,460,460)"/><circle cx="474" cy="152" r="7" transform="rotate(0,474,152)"/><path d="M 467 201v 14h 14v -7a 7 7, 0, 0, 0, -7 -7" transform="rotate(0,474,208)"/><path d="M 467 215v 14h 7a 7 7, 0, 0, 0, 0 -14" transform="rotate(90,474,222)"/><path d="M 467 243v 14h 14v -7a 7 7, 0, 0, 0, -7 -7" transform="rotate(0,474,250)"/><rect x="467" y="257" width="14" height="14" transform="rotate(0,474,264)"/><path d="M 467 271v 14h 14v -7a 7 7, 0, 0, 0, -7 -7" transform="rotate(90,474,278)"/><path d="M 467 299v 14h 7a 7 7, 0, 0, 0, 0 -14" transform="rotate(-90,474,306)"/><rect x="467" y="313" width="14" height="14" transform="rotate(0,474,320)"/><rect x="467" y="327" width="14" height="14" transform="rotate(0,474,334)"/><rect x="467" y="341" width="14" height="14" transform="rotate(0,474,348)"/><rect x="467" y="355" width="14" height="14" transform="rotate(0,474,362)"/><path d="M 467 369v 14h 7a 7 7, 0, 0, 0, 0 -14" transform="rotate(90,474,376)"/><path d="M 467 411v 14h 7a 7 7, 0, 0, 0, 0 -14" transform="rotate(0,474,418)"/><path d="M 467 439v 14h 7a 7 7, 0, 0, 0, 0 -14" transform="rotate(-90,474,446)"/><rect x="467" y="453" width="14" height="14" transform="rotate(0,474,460)"/><path d="M 467 467v 14h 7a 7 7, 0, 0, 0, 0 -14" transform="rotate(90,474,474)"/></clipPath><clipPath id="clip-path-corners-square-color-0-0"><path clip-rule="evenodd" d="M 68 19a 49 49 0 1 0 0.1 0zm 0 14a 35 35 0 1 1 -0.1 0Z" transform="rotate(0,68,68)"/></clipPath><clipPath id="clip-path-corners-dot-color-0-0"><circle cx="68" cy="68" r="21" transform="rotate(0,68,68)"/></clipPath><clipPath id="clip-path-corners-square-color-1-0"><path clip-rule="evenodd" d="M 432 19a 49 49 0 1 0 0.1 0zm 0 14a 35 35 0 1 1 -0.1 0Z" transform="rotate(90,432,68)"/></clipPath><clipPath id="clip-path-corners-dot-color-1-0"><circle cx="432" cy="68" r="21" transform="rotate(90,432,68)"/></clipPath><clipPath id="clip-path-corners-square-color-0-1"><path clip-rule="evenodd" d="M 68 383a 49 49 0 1 0 0.1 0zm 0 14a 35 35 0 1 1 -0.1 0Z" transform="rotate(-90,68,432)"/></clipPath><clipPath id="clip-path-corners-dot-color-0-1"><circle cx="68" cy="432" r="21" transform="rotate(-90,68,432)"/></clipPath></defs><rect x="0" y="0" height="500" width="500" clip-path="url('#clip-path-background-color')" fill="#fff"/><rect x="0" y="0" height="500" width="500" clip-path="url('#clip-path-dot-color')" fill="#000000"/><rect x="19" y="19" height="98" width="98" clip-path="url('#clip-path-corners-square-color-0-0')" fill="#000000"/><rect x="47" y="47" height="42" width="42" clip-path="url('#clip-path-corners-dot-color-0-0')" fill="#000000"/><rect x="383" y="19" height="98" width="98" clip-path="url('#clip-path-corners-square-color-1-0')" fill="#000000"/><rect x="411" y="47" height="42" width="42" clip-path="url('#clip-path-corners-dot-color-1-0')" fill="#000000"/><rect x="19" y="383" height="98" width="98" clip-path="url('#clip-path-corners-square-color-0-1')" fill="#000000"/><rect x="47" y="411" height="42" width="42" clip-path="url('#clip-path-corners-dot-color-0-1')" fill="#000000"/></svg>