<?xml version="1.0" encoding="UTF-8"?>
<svg id="Layer_12" data-name="Layer 12" xmlns="http://www.w3.org/2000/svg" viewBox="0 0 399.55 728.77">
  <defs>
    <style>.cls-1 {
  fill: #fff;
}

.cls-2 {
  fill: #d9d9d9;
}

.cls-3 {
  fill: #2cff10;
}

.cls-4 {
  fill: #38ff00;
}

.cls-5 {
  fill: #343434;
}
</style>
  </defs>
  <g>
    <path class="cls-4" d="M362.22,90.34c-5.31,1.97-10.78,3.54-16.21,5.11-18.5,5.37-21.23,18.82-34.72,33.35-69.31,27.09-67.69,4.56-90.18-38.46-22.49-43.01-42.07-36.22-42.07-36.22l-1.6-1.54c2.3-2.56,4.64-5.08,7.02-7.57,27.06-28.34,68.48-51.05,107.01-28.18,8.26,4.9,15.14,11.8,22.95,17.39,22.38,16.03,52.02,25.18,77.59,35.02,1,.39-18.56,16.07-20.83,17.22-2.91,1.48-5.91,2.75-8.96,3.88Zm-86.43-34.95c0-9.19-7.45-16.64-16.64-16.64s-16.65,7.45-16.65,16.64,7.45,16.65,16.65,16.65,16.64-7.45,16.64-16.65Z"></path>
    <path class="cls-2" d="M345.44,151.4l-2.01,1.37c-51.1,19.98-90.22,39.61-121.51,11.91-11.15-9.85-21.3-25.71-30.65-49.69-17.35-44.5-32.31-37.77-32.78-37.55l-1.04-.79c6.35-8.29,13.01-16.33,19.99-24.07l1.6,1.54s19.58-6.79,42.07,36.22c22.49,43.02,20.87,65.55,90.18,38.46l.05,.02c13.89,6.41,24.96,13.74,34.1,22.58Z"></path>
    <path class="cls-1" d="M259.15,38.75c9.19,0,16.64,7.45,16.64,16.64s-7.45,16.65-16.64,16.65-16.65-7.45-16.65-16.65,7.45-16.64,16.65-16.64Zm10.14,16.64c0-5.6-4.54-10.14-10.14-10.14s-10.15,4.54-10.15,10.14,4.55,10.14,10.15,10.14,10.14-4.54,10.14-10.14Z"></path>
    <path class="cls-5" d="M259.15,45.25c5.6,0,10.14,4.54,10.14,10.14s-4.54,10.14-10.14,10.14-10.15-4.54-10.15-10.14,4.55-10.14,10.15-10.14Z"></path>
    <path class="cls-3" d="M155.6,442.92l-1.46,.22c-12.92,17.79-26.32,31.73-37.26,50.89-13.25,23.22-20.03,49.52-20.39,76.22-.38,27.67,1.97,54-4.24,81.23-5.78,25.33-16.58,48.76-32.12,69.77H7.5l33.92-47.49c-8.96-87.19-10.89-175.7-4.58-263.13,1.61-22.31,5.01-44.48,9.7-66.35,19.8-92.37,52.28-191.05,110.91-267.63l1.04,.79c.47-.22,15.43-6.95,32.78,37.55,9.35,23.98,19.5,39.84,30.65,49.69h-.01c-3.48,8.72-7.94,30.45-11.72,45.37-7.66,30.13-11.8,71.25-16.53,117.04l-.69,.25c9.43,25.57,15.56,52.12,16.76,79.43,1.1,25.19-.85,54.44-13.98,76.57-6.74,11.35-20.77,28.73-33.78,32.73-1.87-24.78-2.78-49.25-6.37-73.15Z"></path>
    <path class="cls-1" d="M155.6,442.92c3.59,23.9,4.5,48.37,6.37,73.15,13.01-4,27.04-21.38,33.78-32.73,13.13-22.13,15.08-51.38,13.98-76.57-1.2-27.31-7.33-53.86-16.76-79.43l.69-.25c4.73-45.79,8.87-86.91,16.53-117.04,3.78-14.92,8.24-36.65,11.72-45.36h.01c31.29,27.69,70.41,8.06,121.51-11.92l2.01-1.37c13.38,12.93,22.62,29.08,30.48,50.27,11.05,29.77,11.55,60.47,10.62,91.66-.02,.63-.04,1.26-.06,1.88-2.06,61.91-14.91,122.92-33.96,181.73-9.52,29.4-20.56,58.3-32.5,86.8-10.84,25.9-28.34,53.13-33.92,80.68-.7,3.47-1.1,7.37,.87,10.31,2.92,4.37,9.19,4.35,14.44,4.34,38.55-.07,73.23,25.92,85.6,62.19-47.03,0-94.06,0-141.1-.01H60.13c15.54-21.01,26.34-44.44,32.12-69.77,6.21-27.23,3.86-53.56,4.24-81.23,.36-26.7,7.14-53,20.39-76.22,10.94-19.16,24.34-33.1,37.26-50.89l1.46-.22Z"></path>
  </g>
  <g>
    <path class="cls-5" d="M193.67,334.59c-.26,0-.52-.01-.78-.04-4.12-.43-7.12-4.11-6.69-8.23l.32-3.11c4.71-45.62,8.78-85.03,16.4-115.01,1.14-4.51,2.33-9.58,3.59-14.94,2.99-12.75,5.81-24.79,8.43-31.35,1.54-3.85,5.9-5.72,9.75-4.18,3.85,1.54,5.72,5.9,4.18,9.75-2.2,5.52-5.16,18.1-7.76,29.21-1.22,5.2-2.48,10.57-3.65,15.21-7.35,28.92-11.37,67.82-16.02,112.86l-.32,3.11c-.4,3.86-3.66,6.73-7.45,6.73Z"></path>
    <path class="cls-5" d="M60.12,728.75c-1.55,0-3.11-.48-4.45-1.47-3.33-2.46-4.03-7.16-1.57-10.49,14.93-20.18,25.3-42.71,30.84-66.98,4.51-19.76,4.31-39.09,4.1-59.56-.07-6.54-.14-13.31-.04-20.11,.38-28.39,7.77-56,21.38-79.83,7.41-12.98,16.01-23.79,24.33-34.24,4.41-5.54,8.96-11.26,13.37-17.34,2.43-3.35,7.12-4.1,10.48-1.66,3.35,2.43,4.1,7.12,1.66,10.48-4.6,6.34-9.27,12.2-13.77,17.86-8.33,10.47-16.21,20.36-23.04,32.34-12.34,21.63-19.06,46.74-19.4,72.6-.09,6.62-.02,13.3,.04,19.75,.21,20.43,.43,41.56-4.47,63.05-6,26.29-17.24,50.71-33.4,72.56-1.47,1.99-3.74,3.04-6.04,3.04Z"></path>
    <path class="cls-5" d="M345.69,728.77c-33.25,0-66.5,0-99.77-.01H7.5c-2.81,0-5.38-1.57-6.67-4.07-1.29-2.5-1.07-5.5,.57-7.79l32.27-45.19c-8.98-88.88-10.43-176.89-4.31-261.61,1.55-21.47,4.86-44.14,9.85-67.38,24.83-115.84,61.56-204.36,112.29-270.62,6.54-8.54,13.4-16.8,20.38-24.53,2.28-2.53,4.69-5.14,7.17-7.73,11.21-11.74,29.37-27.38,52.19-35.21,22.54-7.73,44.7-5.74,64.07,5.76,5.46,3.24,10.23,7.16,14.85,10.95,2.95,2.42,5.73,4.71,8.64,6.79,17.39,12.45,39.64,20.66,61.16,28.6,4.89,1.8,9.94,3.67,14.76,5.52,2.77,1.07,4.69,3.72,4.83,6.69,.21,4.39-1.97,6.32-12.35,14.75-3.76,3.05-10.4,8.35-12.62,9.47-2.98,1.52-6.17,2.9-9.74,4.22-5.43,2.01-10.97,3.61-16.32,5.16l-.42,.12c-10.11,2.94-14.15,8.61-20.25,17.21-1.44,2.03-2.98,4.2-4.7,6.45,10.73,5.74,19.79,12.23,27.51,19.7,13.6,13.15,23.57,29.51,32.3,53.05,11.87,31.99,11.95,65.55,11.08,94.49l-.06,1.9c-1.94,58.38-13.17,118.5-34.32,183.8-8.92,27.53-19.62,56.12-32.72,87.39-3.69,8.81-8.18,17.87-12.51,26.63-8.57,17.31-17.44,35.2-20.97,52.65-.77,3.81-.27,4.61-.25,4.65,.69,1.03,6.32,1.02,8.17,1.02,41.1-.08,79.21,27.59,92.74,67.27,.78,2.29,.41,4.82-1,6.78-1.41,1.97-3.68,3.14-6.1,3.14-13.77,0-27.55,0-41.32,0Zm-323.62-15.01H245.91c43.31,0,86.6,.02,129.88,.01-13.92-28.25-43.08-47.19-74.23-47.19-.3,0-.59,0-.9,0-6.19,0-14.99-.28-19.93-7.67-4-5.97-2.54-13.23-1.99-15.96,3.92-19.37,13.23-38.16,22.23-56.33,4.43-8.94,8.61-17.38,12.12-25.76,12.94-30.88,23.5-59.08,32.28-86.21,20.71-63.95,31.7-122.72,33.6-179.67l.06-1.87c.86-28.78,.78-59.35-10.16-88.81-7.91-21.33-16.75-35.98-28.66-47.49,0,0,0,0,0,0-8.49-8.21-18.96-15.13-32.02-21.16-2.12-.98-3.69-2.9-4.21-5.18-.54-2.41,.12-4.94,1.8-6.75,3.95-4.25,6.93-8.45,9.82-12.52,6.77-9.53,13.17-18.54,28.31-22.93l.42-.12c5.09-1.47,10.35-2.99,15.27-4.82,2.96-1.1,5.58-2.23,8-3.45,1.41-.9,5.97-4.46,10.23-7.92-1.02-.38-2.05-.76-3.09-1.14-22.46-8.28-45.68-16.85-64.7-30.48-3.31-2.37-6.42-4.92-9.43-7.4-4.37-3.59-8.5-6.98-12.98-9.64-42.68-25.33-85.62,14.19-97.76,26.91-2.37,2.48-4.68,4.97-6.87,7.4-6.72,7.45-13.31,15.39-19.61,23.62-49.35,64.46-85.18,151.02-109.53,264.64-4.84,22.57-8.05,44.54-9.55,65.32-6.12,84.76-4.58,172.85,4.56,261.82,.19,1.82-.3,3.64-1.36,5.13l-25.45,35.63ZM367.78,79.78s-.03,.01-.05,.02c.02,0,.03-.02,.05-.02Z"></path>
    <path class="cls-5" d="M311.28,136.3c-.9,0-1.81-.16-2.69-.51-2.86-1.06-4.9-3.81-4.9-7.04,0-4.14,3.36-7.5,7.5-7.5,.97,0,1.94,.19,2.84,.56,3.84,1.54,5.73,5.9,4.2,9.75-1.17,2.94-3.98,4.74-6.96,4.74Z"></path>
    <path class="cls-5" d="M348.13,98.37c-16.99,0-44.9-2.05-63.7-13.99-3.5-2.22-4.53-6.85-2.31-10.35,2.22-3.5,6.85-4.53,10.35-2.31,9.67,6.14,24.6,10.02,43.19,11.24,14.41,.94,25.76-.07,25.87-.08,4.12-.38,7.78,2.66,8.15,6.78,.38,4.12-2.66,7.78-6.78,8.15-.68,.06-6.4,.56-14.78,.56Z"></path>
    <path class="cls-5" d="M161.97,523.57c-1.49,0-2.97-.44-4.23-1.3-1.88-1.29-3.08-3.36-3.25-5.63-.48-6.4-.91-12.86-1.32-19.11-1.22-18.54-2.37-36.04-4.99-53.49-3.91-26.09-10.54-46.99-20.85-65.78-8.58-15.64-19.1-27.61-31.26-35.56-3.47-2.27-4.44-6.92-2.17-10.38,2.27-3.47,6.92-4.44,10.38-2.17,14.24,9.31,26.42,23.07,36.2,40.9,11.19,20.39,18.35,42.87,22.53,70.76,2.71,18.07,3.94,36.71,5.12,54.74,.16,2.41,.32,4.85,.48,7.3,7.62-5.98,15.58-15.75,20.68-24.34,10.09-17.01,14.32-40.69,12.94-72.41-1.09-24.82-6.58-50.79-16.3-77.16-13.96-37.88-36.09-76.53-69.64-121.66-2.47-3.32-1.78-8.02,1.54-10.49,3.32-2.47,8.02-1.78,10.49,1.54,34.43,46.31,57.21,86.16,71.68,125.42,10.26,27.83,16.06,55.32,17.22,81.69,1.52,34.73-3.4,61.13-15.02,80.73-6.58,11.08-21.99,31.14-38.03,36.07-.72,.22-1.46,.33-2.2,.33Z"></path>
    <path class="cls-5" d="M265.56,148.08c-5.74,0-10.67-.93-15.08-2.74-13.8-5.67-20.2-19.04-28.31-35.96-2.37-4.94-4.81-10.04-7.7-15.57-18.54-35.46-33.16-32.53-33.31-32.5,.23-.05,.35-.11,.35-.11l-4.92-14.17c2.63-.91,26.4-7.54,51.17,39.83,3.01,5.76,5.63,11.22,7.93,16.03,7.24,15.11,12.02,25.09,20.49,28.57,9.34,3.84,25.49,.86,52.38-9.65,3.86-1.51,8.21,.4,9.72,4.26,1.51,3.86-.4,8.21-4.25,9.72-21.29,8.32-36.6,12.29-48.46,12.29Z"></path>
    <path class="cls-5" d="M258.23,185.85c-14.82,0-28.59-4.32-41.28-15.55-12.48-11.03-23.17-28.23-32.67-52.58-10.91-27.99-20.44-33.49-23.11-33.27-2.65,1.01-5.76,.47-7.92-1.63-2.96-2.89-3.03-7.64-.14-10.6h0c.63-.66,1.37-1.18,2.19-1.57,1.34-.63,6.23-2.46,13,.25,10.87,4.35,20.94,18.27,29.95,41.37,8.61,22.07,17.97,37.38,28.63,46.79,24.99,22.12,56.49,9.55,100.1-7.84,4.47-1.78,9.04-3.61,13.71-5.43,3.86-1.51,8.21,.4,9.72,4.25,1.51,3.86-.4,8.21-4.25,9.72-4.64,1.81-9.17,3.62-13.62,5.4-27.05,10.79-51.88,20.69-74.32,20.69Z"></path>
    <path class="cls-5" d="M245.91,728.75c-3.16,0-6.09-2.01-7.13-5.17-8.32-25.45-25.28-42.79-50.4-51.55-19.02-6.63-35.5-5.65-35.67-5.64-4.14,.27-7.7-2.87-7.97-7-.27-4.13,2.87-7.7,7-7.97,.79-.05,19.71-1.18,41.58,6.45,29.35,10.23,50,31.35,59.72,61.05,1.29,3.94-.86,8.17-4.8,9.46-.77,.25-1.56,.37-2.33,.37Z"></path>
  </g>
</svg>